<svg width="143" height="32" viewBox="0 0 143 32" fill="none" xmlns="http://www.w3.org/2000/svg">
<rect width="40" height="32" rx="4" fill="#E4F2F6"/>
<path d="M53.054 23C54.398 23 55.462 22.552 56.232 21.656C57.002 20.746 57.394 19.598 57.394 18.198C57.394 16.784 57.002 15.636 56.218 14.726C55.448 13.816 54.384 13.354 53.054 13.354H49.316V23H53.054ZM50.618 14.572H53.054C54.02 14.572 54.776 14.908 55.294 15.594C55.826 16.266 56.092 17.134 56.092 18.198C56.092 19.248 55.826 20.116 55.294 20.788C54.776 21.446 54.02 21.782 53.054 21.782H50.618V14.572ZM60.3865 23V16.462H59.1265V23H60.3865ZM59.1265 14.642C59.4765 14.964 60.0365 14.964 60.3725 14.642C60.7225 14.32 60.7225 13.788 60.3725 13.466C60.0365 13.144 59.4765 13.144 59.1265 13.466C58.7905 13.788 58.7905 14.32 59.1265 14.642ZM68.9571 23V16.462H67.6971V17.442C67.2911 16.728 66.3531 16.322 65.4011 16.322C64.4771 16.322 63.6931 16.63 63.0491 17.26C62.4051 17.89 62.0831 18.702 62.0831 19.724C62.0831 20.732 62.4051 21.558 63.0491 22.188C63.6931 22.818 64.4771 23.14 65.4011 23.14C66.3531 23.14 67.2631 22.72 67.6971 21.992V23H68.9571ZM67.6831 19.71C67.6831 20.382 67.4731 20.914 67.0531 21.306C66.6331 21.698 66.1151 21.894 65.5131 21.894C64.9111 21.894 64.4071 21.684 64.0011 21.278C63.5951 20.872 63.3851 20.34 63.3851 19.71C63.3851 19.08 63.5811 18.562 63.9871 18.17C64.3931 17.764 64.9111 17.568 65.5131 17.568C66.0871 17.568 66.5911 17.764 67.0251 18.142C67.4591 18.52 67.6831 19.052 67.6831 19.71ZM78.6074 17.568C79.5454 17.568 80.1054 18.226 80.1054 19.304V23H81.3794V19.22C81.3794 17.372 80.4834 16.322 78.8594 16.322C77.8094 16.322 77.0534 16.77 76.5914 17.666C76.2834 16.952 75.7094 16.518 74.8834 16.392C74.6594 16.35 74.4214 16.336 74.1694 16.35C73.5114 16.406 72.6854 16.784 72.3634 17.442V16.462H71.0894V23H72.3634V19.472C72.3634 18.198 73.1754 17.568 74.1834 17.568C75.0374 17.568 75.5974 18.226 75.5974 19.29V23H76.8714V19.472C76.8714 18.352 77.5434 17.554 78.6074 17.568ZM82.9874 19.71C82.9874 20.732 83.3234 21.558 83.9814 22.188C84.6394 22.818 85.4514 23.14 86.4034 23.14C87.3554 23.14 88.1674 22.818 88.8254 22.188C89.4974 21.544 89.8334 20.718 89.8334 19.71C89.8334 18.702 89.4974 17.89 88.8394 17.26C88.1814 16.63 87.3694 16.322 86.4034 16.322C85.4374 16.322 84.6254 16.63 83.9674 17.26C83.3094 17.89 82.9874 18.702 82.9874 19.71ZM88.5594 19.71C88.5594 20.368 88.3494 20.9 87.9294 21.306C87.5234 21.712 87.0054 21.908 86.4034 21.908C85.8014 21.908 85.2834 21.712 84.8634 21.306C84.4574 20.9 84.2474 20.368 84.2474 19.71C84.2474 19.066 84.4574 18.548 84.8634 18.156C85.2834 17.764 85.8014 17.568 86.4034 17.568C87.0054 17.568 87.5234 17.764 87.9294 18.156C88.3494 18.548 88.5594 19.066 88.5594 19.71ZM92.8028 19.472C92.8028 18.184 93.6288 17.568 94.6508 17.568C95.5468 17.568 96.0928 18.226 96.0928 19.304V23H97.3668V19.22C97.3668 17.372 96.4708 16.322 94.8468 16.322C94.0488 16.322 93.1808 16.714 92.8028 17.442V16.462H91.5288V23H92.8028V19.472ZM105.858 23V12.906H104.584V17.442C104.15 16.714 103.268 16.322 102.274 16.322C101.35 16.322 100.566 16.63 99.9355 17.26C99.3055 17.89 98.9835 18.702 98.9835 19.724C98.9835 20.732 99.3055 21.558 99.9355 22.188C100.58 22.818 101.364 23.14 102.288 23.14C103.24 23.14 104.15 22.72 104.584 21.992V23H105.858ZM102.4 17.568C102.974 17.568 103.478 17.764 103.912 18.142C104.346 18.52 104.57 19.052 104.57 19.71C104.57 20.368 104.36 20.9 103.926 21.306C103.506 21.698 103.002 21.894 102.4 21.894C101.798 21.894 101.294 21.684 100.888 21.278C100.482 20.872 100.286 20.34 100.286 19.71C100.286 19.08 100.482 18.562 100.888 18.17C101.294 17.764 101.798 17.568 102.4 17.568Z" fill="#0E0018"/>
<path d="M27.5 8H13.25L8 13.25L19.3161 23.8588C19.7007 24.2194 20.2993 24.2194 20.6839 23.8588L32 13.25L27.5 8Z" fill="white" stroke="#007499" stroke-width="2"/>
<path d="M13 8L16.5 12.5L20 8.5L23.5 12.5L26.5 8.5" stroke="#007499" stroke-width="2"/>
<path d="M31.5 13L23.5 12L20.1906 22.401C20.1315 22.5868 19.8685 22.5868 19.8094 22.401L16.5 12L8.5 13" stroke="#007499" stroke-width="2"/>
<path d="M16.5 12H23" stroke="#007499" stroke-width="2"/>
</svg>
