<svg width="107" height="130" viewBox="0 0 107 130" fill="none" xmlns="http://www.w3.org/2000/svg">
<path d="M93.1302 53.5947C93.1302 46.297 94.4948 31.7016 82.2143 31.7016C69.9338 31.7016 71.2984 46.297 71.2984 53.5947" stroke="#007499" stroke-width="2"/>
<path d="M46.1189 14.6812L33.7492 7.60648L26.5854 9.55727L31.1414 24.3844C31.2962 24.8884 31.8158 25.1856 32.3287 25.0635L47.4187 21.4726L46.1189 14.6812Z" fill="white" stroke="#007499" stroke-width="2"/>
<path d="M33.5322 7.48242L34.3363 13.1263L39.3604 11.3918L40.4126 16.6016L45.0027 14.6188" stroke="#007499" stroke-width="2"/>
<path d="M47.1089 21.0074L40.6609 16.1676L32.6243 23.5531C32.4808 23.6851 32.2525 23.5546 32.2935 23.3639L34.5846 12.6922L27.1437 9.58851" stroke="#007499" stroke-width="2"/>
<path d="M34.5845 12.6921L40.2268 15.9192" stroke="#007499" stroke-width="2"/>
<path d="M20.6512 2.76929L8.31031 9.89429L6.38867 17.0659L21.4931 20.5954C22.0065 20.7154 22.5249 20.4161 22.6777 19.9114L27.1733 5.06592L20.6512 2.76929Z" fill="white" stroke="#007499" stroke-width="2"/>
<path d="M8.09375 10.0193L13.3748 12.1664L14.4059 6.9523L19.437 8.6664L20.0351 3.7023" stroke="#007499" stroke-width="2"/>
<path d="M26.6154 5.09942L19.1872 8.2334L21.5216 18.8957C21.5633 19.0861 21.3356 19.2176 21.1915 19.0862L13.125 11.7334L6.69678 16.5994" stroke="#007499" stroke-width="2"/>
<path d="M13.125 11.7334L18.7542 8.4834" stroke="#007499" stroke-width="2"/>
<path d="M73.0643 35.6809L58.823 35.1833L53.3929 40.2468L64.3316 51.2443C64.7034 51.6181 65.3016 51.639 65.6986 51.292L77.3782 41.0848L73.0643 35.6809Z" fill="white" stroke="#007499" stroke-width="2"/>
<path d="M58.5732 35.1746L61.914 39.794L65.5515 35.9187L68.9097 40.0384L72.0476 36.1456" stroke="#007499" stroke-width="2"/>
<path d="M76.8871 40.8176L68.9269 39.5389L65.2563 49.818C65.1907 50.0017 64.928 49.9925 64.8754 49.8047L61.9312 39.2945L53.9011 40.0145" stroke="#007499" stroke-width="2"/>
<path d="M61.9312 39.2944L68.4272 39.5214" stroke="#007499" stroke-width="2"/>
<path d="M88.6603 29.6363L74.8958 25.9482L68.4659 29.6605L76.6506 42.8366C76.9288 43.2845 77.507 43.4394 77.9719 43.1906L91.6481 35.8721L88.6603 29.6363Z" fill="white" stroke="#007499" stroke-width="2"/>
<path d="M74.6543 25.8835L76.8704 31.1361L81.2864 28.1782L83.6318 32.9478L87.5649 29.8606" stroke="#007499" stroke-width="2"/>
<path d="M91.2299 35.5013L83.7613 32.4648L77.8727 41.6549C77.7675 41.8191 77.5136 41.751 77.5045 41.5562L76.9999 30.6531L69.0136 29.5484" stroke="#007499" stroke-width="2"/>
<path d="M77 30.6531L83.2785 32.3354" stroke="#007499" stroke-width="2"/>
<path d="M90.0643 39.6809L75.823 39.1833L70.3929 44.2468L81.3316 55.2443C81.7034 55.6181 82.3016 55.639 82.6986 55.292L94.3782 45.0848L90.0643 39.6809Z" fill="white" stroke="#007499" stroke-width="2"/>
<path d="M75.5732 39.1746L78.914 43.794L82.5515 39.9187L85.9097 44.0384L89.0476 40.1456" stroke="#007499" stroke-width="2"/>
<path d="M93.8871 44.8176L85.9269 43.5389L82.2563 53.818C82.1907 54.0017 81.928 53.9925 81.8754 53.8047L78.9312 43.2945L70.9011 44.0145" stroke="#007499" stroke-width="2"/>
<path d="M78.9312 43.2944L85.4272 43.5214" stroke="#007499" stroke-width="2"/>
<path d="M101.064 36.6809L86.823 36.1833L81.3929 41.2468L92.3316 52.2443C92.7034 52.6181 93.3016 52.639 93.6986 52.292L105.378 42.0848L101.064 36.6809Z" fill="white" stroke="#007499" stroke-width="2"/>
<path d="M86.5732 36.1746L89.914 40.794L93.5515 36.9187L96.9097 41.0384L100.048 37.1456" stroke="#007499" stroke-width="2"/>
<path d="M104.887 41.8176L96.9269 40.5389L93.2563 50.818C93.1907 51.0017 92.928 50.9925 92.8754 50.8047L89.9312 40.2945L81.9011 41.0145" stroke="#007499" stroke-width="2"/>
<path d="M89.9312 40.2944L96.4272 40.5214" stroke="#007499" stroke-width="2"/>
<path d="M36.0643 17.6809L21.823 17.1833L16.3929 22.2468L27.3316 33.2443C27.7034 33.6181 28.3016 33.639 28.6986 33.292L40.3782 23.0848L36.0643 17.6809Z" fill="white" stroke="#007499" stroke-width="2"/>
<path d="M21.5732 17.1746L24.914 21.794L28.5515 17.9187L31.9097 22.0384L35.0476 18.1456" stroke="#007499" stroke-width="2"/>
<path d="M39.8871 22.8176L31.9269 21.5389L28.2563 31.818C28.1907 32.0017 27.928 31.9925 27.8754 31.8047L24.9312 21.2945L16.9011 22.0145" stroke="#007499" stroke-width="2"/>
<path d="M24.9312 21.2944L31.4272 21.5214" stroke="#007499" stroke-width="2"/>
<path d="M19.8242 18.1745L6.06805 21.8935L2.37017 28.3317L16.0628 35.6195C16.5282 35.8673 17.106 35.711 17.3833 35.2625L25.5384 22.0681L19.8242 18.1745Z" fill="white" stroke="#007499" stroke-width="2"/>
<path d="M5.82666 21.9587L10.3798 25.3893L12.7146 20.6145L17.1372 23.5624L18.9893 18.9181" stroke="#007499" stroke-width="2"/>
<path d="M24.9902 21.9573L17.0065 23.0799L16.5263 33.9841C16.5177 34.1789 16.2639 34.2475 16.1583 34.0836L10.2491 24.9068L2.78735 27.96" stroke="#007499" stroke-width="2"/>
<path d="M10.2495 24.9067L16.5242 23.2103" stroke="#007499" stroke-width="2"/>
<path d="M53.1375 26.75L40.7966 19.625L33.625 21.5466L38.1206 36.3922C38.2734 36.8968 38.7918 37.1961 39.3052 37.0761L54.4096 33.5466L53.1375 26.75Z" fill="white" stroke="#007499" stroke-width="2"/>
<path d="M40.5801 19.5L41.3612 25.1471L46.3923 23.433L47.4233 28.6471L52.0214 26.683" stroke="#007499" stroke-width="2"/>
<path d="M54.1017 33.0801L47.6735 28.2141L39.6069 35.5669C39.4628 35.6983 39.2351 35.5668 39.2768 35.3764L41.6113 24.7141L34.1831 21.5801" stroke="#007499" stroke-width="2"/>
<path d="M41.6113 24.7141L47.2405 27.9641" stroke="#007499" stroke-width="2"/>
<path d="M1 116.537V26.5076H42.8564H48.6889H54.5213V116.537H42.8564H1Z" fill="#E4F2F6"/>
<path d="M42.8564 116.537H1V26.5076H42.8564M42.8564 116.537V26.5076M42.8564 116.537H54.5213M42.8564 116.537L48.3458 106.634M42.8564 26.5076H48.6889M54.5213 116.537V26.5076H48.6889M54.5213 116.537L48.3458 106.634M48.3458 106.634L48.6889 26.5076" stroke="#570097" stroke-width="2"/>
<path d="M48.7852 116.537V48.1213H90.402H96.2011H102V116.537H90.402H48.7852Z" fill="#E4F2F6"/>
<path d="M90.402 116.537H48.7852V48.1213H90.402M90.402 116.537V48.1213M90.402 116.537H102M90.402 116.537L95.86 109.012M90.402 48.1213H96.2011M102 116.537V48.1213H96.2011M102 116.537L95.86 109.012M95.86 109.012L96.2011 48.1213" stroke="#570097" stroke-width="2"/>
<path d="M47.2161 50.6059L33.9043 55.6912L30.8735 62.469L45.2304 68.3411C45.7184 68.5407 46.2775 68.3271 46.5082 67.8529L53.2933 53.9044L47.2161 50.6059Z" fill="white" stroke="#007499" stroke-width="2"/>
<path d="M33.6709 55.7803L38.5463 58.735L40.3884 53.7493L45.0854 56.2369L46.4605 51.4297" stroke="#007499" stroke-width="2"/>
<path d="M52.737 53.8492L44.9069 55.7699L45.5271 66.6671C45.5382 66.8618 45.2926 66.9556 45.171 66.8031L38.3678 58.2679L31.2514 62.057" stroke="#007499" stroke-width="2"/>
<path d="M38.3677 58.2681L44.4397 55.9485" stroke="#007499" stroke-width="2"/>
<path d="M67.1375 64.75L54.7966 57.625L47.625 59.5466L52.1206 74.3922C52.2734 74.8968 52.7918 75.1961 53.3052 75.0761L68.4096 71.5466L67.1375 64.75Z" fill="white" stroke="#007499" stroke-width="2"/>
<path d="M54.5801 57.5L55.3612 63.1471L60.3923 61.433L61.4233 66.6471L66.0214 64.683" stroke="#007499" stroke-width="2"/>
<path d="M68.1017 71.0801L61.6735 66.2141L53.6069 73.5669C53.4628 73.6983 53.2351 73.5668 53.2768 73.3764L55.6113 62.7141L48.1831 59.5801" stroke="#007499" stroke-width="2"/>
<path d="M55.6113 62.7141L61.2405 65.9641" stroke="#007499" stroke-width="2"/>
<path d="M80.8504 53.5947C80.8504 46.297 82.215 31.7016 69.9345 31.7016C57.654 31.7016 59.0186 46.297 59.0186 53.5947" stroke="#570097" stroke-width="2"/>
<ellipse cx="59.0185" cy="54.963" rx="2.72898" ry="2.73664" fill="#570097"/>
<ellipse cx="80.8506" cy="54.963" rx="2.72897" ry="2.73664" fill="#570097"/>
<path d="M32.8033 49.8807C32.8033 55.5463 28.224 60.1344 22.5811 60.1344C16.9382 60.1344 12.3589 55.5463 12.3589 49.8807C12.3589 44.2151 16.9382 39.627 22.5811 39.627C28.224 39.627 32.8033 44.2151 32.8033 49.8807Z" fill="white" stroke="#007499" stroke-width="2"/>
<path d="M75.1375 56.75L62.7966 49.625L55.625 51.5466L60.1206 66.3922C60.2734 66.8968 60.7918 67.1961 61.3052 67.0761L76.4096 63.5466L75.1375 56.75Z" fill="white" stroke="#007499" stroke-width="2"/>
<path d="M62.5801 49.5L63.3612 55.1471L68.3923 53.433L69.4233 58.6471L74.0214 56.683" stroke="#007499" stroke-width="2"/>
<path d="M76.1017 63.0801L69.6735 58.2141L61.6069 65.5669C61.4628 65.6983 61.2351 65.5668 61.2768 65.3764L63.6113 54.7141L56.1831 51.5801" stroke="#007499" stroke-width="2"/>
<path d="M63.6113 54.7141L69.2405 57.9641" stroke="#007499" stroke-width="2"/>
<path d="M75.3925 65.2671V120H65.1589H26.271V65.2671H65.1589H75.3925Z" fill="#E4F2F6"/>
<path d="M75.3925 120V65.2671H65.1589M75.3925 120H65.1589M75.3925 120L69.9346 114.527M65.1589 65.2671H26.271V120H65.1589M65.1589 65.2671V120M65.1589 120L69.9346 114.527M69.9346 114.527V66.6354M36.5046 73.477C36.5046 77.1259 38.142 84.4236 44.6916 84.4236C51.2411 84.4236 52.8785 77.1259 52.8785 73.477" stroke="#570097" stroke-width="2"/>
<path d="M35.5434 113.701L24.7307 104.42L17.3275 104.984L19.0041 120.404C19.0611 120.928 19.5153 121.318 20.042 121.295L35.5384 120.616L35.5434 113.701Z" fill="white" stroke="#007499" stroke-width="2"/>
<path d="M24.541 104.257L24.2657 109.951L29.5269 109.195L29.5773 114.51L34.459 113.429" stroke="#007499" stroke-width="2"/>
<path d="M35.3218 120.1L29.9028 114.131L20.6171 119.868C20.4512 119.97 20.2517 119.799 20.3278 119.619L24.5913 109.572L17.8697 105.12" stroke="#007499" stroke-width="2"/>
<path d="M24.5913 109.572L29.5234 113.805" stroke="#007499" stroke-width="2"/>
</svg>
