<svg width="88" height="112" viewBox="0 0 88 112" fill="none" xmlns="http://www.w3.org/2000/svg">
<path d="M76.9278 32.5C76.9278 24.3333 78.4775 8 64.5314 8C50.5853 8 52.135 24.3333 52.135 32.5" stroke="#570097" stroke-width="2"/>
<path d="M48.4197 4.08731L45.7452 8.25227L49.1519 23.8854L53.3169 26.5599L64.0646 24.2178L66.7392 20.0529L63.3325 4.41975L59.1675 1.74521L48.4197 4.08731Z" fill="#E4F6E4" stroke="#039900" stroke-width="2"/>
<path d="M46.3404 8.63435L50.2487 7.78267L49.5035 4.36293M58.2971 2.44667L59.0423 5.86642L62.4621 5.1212" stroke="#039900" stroke-width="2"/>
<path d="M49.5341 23.2905L53.4424 22.4388L54.1876 25.8585M62.9812 23.9423L62.236 20.5225L65.6557 19.7773" stroke="#039900" stroke-width="2"/>
<path d="M54.2064 21.2488L51.4385 8.54688L58.278 7.05645L61.0459 19.7584L54.2064 21.2488Z" stroke="#039900" stroke-width="2"/>
<path d="M65.4953 8.75088L62.1812 12.4274L63.0098 28.406L66.6863 31.72L77.6716 31.1504L80.9856 27.4738L80.1571 11.4953L76.4805 8.18125L65.4953 8.75088Z" fill="#E4F6E4" stroke="#039900" stroke-width="2"/>
<path d="M62.7066 12.9008L66.7013 12.6937L66.52 9.19838M75.5079 8.73232L75.6892 12.2276L79.1845 12.0464" stroke="#039900" stroke-width="2"/>
<path d="M63.4833 27.8807L67.4779 27.6735L67.6592 31.1688M76.6471 30.7028L76.4659 27.2075L79.9612 27.0262" stroke="#039900" stroke-width="2"/>
<path d="M68.4247 26.6232L67.7515 13.6406L74.7421 13.2781L75.4153 26.2607L68.4247 26.6232Z" stroke="#039900" stroke-width="2"/>
<path d="M41.34 10.389L36.7385 12.2126L30.3889 26.8987L32.2125 31.5003L42.3092 35.8656L46.9108 34.042L53.2604 19.3559L51.4368 14.7543L41.34 10.389Z" fill="#E4F6E4" stroke="#039900" stroke-width="2"/>
<path d="M36.9992 12.8701L40.6707 14.4575L42.0597 11.2449M50.3207 14.8165L48.9317 18.0291L52.1443 19.4181" stroke="#039900" stroke-width="2"/>
<path d="M31.0462 26.6382L34.7177 28.2256L33.3288 31.4382M41.5897 35.0099L42.9787 31.7973L46.1913 33.1862" stroke="#039900" stroke-width="2"/>
<path d="M36.0324 27.7045L41.1914 15.772L47.6166 18.5499L42.4576 30.4824L36.0324 27.7045Z" stroke="#039900" stroke-width="2"/>
<path d="M26.5674 102.938V26.375H73.8286H80.4142H86.9998V102.938H73.8286H26.5674Z" fill="white"/>
<path d="M73.8286 102.938H26.5674V26.375H73.8286M73.8286 102.938V26.375M73.8286 102.938H86.9998M73.8286 102.938L80.0268 94.5156M73.8286 26.375H80.4142M86.9998 102.938V26.375H80.4142M86.9998 102.938L80.0268 94.5156M80.0268 94.5156L80.4142 26.375" stroke="#570097" stroke-width="2"/>
<path d="M62.982 32.5C62.982 24.3333 64.5317 8 50.5856 8C36.6395 8 38.1892 24.3333 38.1892 32.5" stroke="#570097" stroke-width="2"/>
<ellipse cx="38.0991" cy="34.0625" rx="3.0991" ry="3.0625" fill="#570097"/>
<ellipse cx="62.9819" cy="34.0312" rx="3.0991" ry="3.0625" fill="#570097"/>
<path d="M5.28707 38.9805L3.20215 43.4697L8.69771 58.4963L13.1869 60.5812L23.5177 56.803L25.6026 52.3138L20.1071 37.2872L15.6179 35.2023L5.28707 38.9805Z" fill="#E4F6E4" stroke="#039900" stroke-width="2"/>
<path d="M3.84327 43.7675L7.59992 42.3936L6.39776 39.1066M14.8502 36.0153L16.0524 39.3024L19.3395 38.1002" stroke="#039900" stroke-width="2"/>
<path d="M8.9956 57.855L12.7523 56.4811L13.9544 59.7682M22.4069 56.6769L21.2047 53.3899L24.4918 52.1877" stroke="#039900" stroke-width="2"/>
<path d="M13.348 55.1984L8.88281 42.9893L15.457 40.585L19.9221 52.7941L13.348 55.1984Z" stroke="#039900" stroke-width="2"/>
<path d="M40.3334 33.9059L36.0468 36.3807L31.9057 51.8356L34.3805 56.1222L45.0057 58.9692L49.2923 56.4943L53.4334 41.0395L50.9586 36.7529L40.3334 33.9059Z" fill="#E4F6E4" stroke="#039900" stroke-width="2"/>
<path d="M36.4003 36.993L40.264 38.0283L41.1699 34.6476M49.8632 36.977L48.9573 40.3577L52.3381 41.2636" stroke="#039900" stroke-width="2"/>
<path d="M32.5182 51.4821L36.3819 52.5173L35.476 55.8981M44.1693 58.2274L45.0752 54.8467L48.4559 55.7526" stroke="#039900" stroke-width="2"/>
<path d="M37.6065 51.8102L40.9712 39.2532L47.7327 41.0649L44.368 53.6219L37.6065 51.8102Z" stroke="#039900" stroke-width="2"/>
<path d="M19.4953 28.7509L16.1812 32.4274L17.0098 48.406L20.6863 51.72L31.6716 51.1504L34.9856 47.4738L34.1571 31.4953L30.4805 28.1813L19.4953 28.7509Z" fill="#E4F6E4" stroke="#039900" stroke-width="2"/>
<path d="M16.7066 32.9008L20.7013 32.6937L20.52 29.1984M29.5079 28.7323L29.6892 32.2276L33.1845 32.0464" stroke="#039900" stroke-width="2"/>
<path d="M17.4833 47.8807L21.4779 47.6735L21.6592 51.1688M30.6471 50.7028L30.4659 47.2075L33.9612 47.0262" stroke="#039900" stroke-width="2"/>
<path d="M22.4247 46.6232L21.7515 33.6406L28.7421 33.2781L29.4153 46.2607L22.4247 46.6232Z" stroke="#039900" stroke-width="2"/>
<path d="M56.7838 44.75V106H45.1622H1V44.75H45.1622H56.7838Z" fill="white"/>
<path d="M56.7838 106V44.75H45.1622M56.7838 106H45.1622M56.7838 106L50.5856 99.875M45.1622 44.75H1V106H45.1622M45.1622 44.75V106M45.1622 106L50.5856 99.875M50.5856 99.875V46.2812" stroke="#570097" stroke-width="2"/>
<path d="M14.9461 53.9375C14.9461 65.4219 13.3966 73.8438 24.2434 73.8438C35.0903 73.8438 33.5407 66.1875 33.5407 53.9375" stroke="#570097" stroke-width="2"/>
<path d="M40.4537 84.9249L36.1532 87.3756L31.9248 102.807L34.3755 107.107L44.9844 110.014L49.2849 107.564L53.5133 92.1324L51.0626 87.8319L40.4537 84.9249Z" fill="#E4F6E4" stroke="#039900" stroke-width="2"/>
<path d="M36.5033 87.9898L40.3611 89.0469L41.286 85.6713M49.9661 88.0498L49.0411 91.4253L52.4167 92.3503" stroke="#039900" stroke-width="2"/>
<path d="M32.5392 102.457L36.397 103.514L35.4721 106.889M44.1521 109.268L45.077 105.892L48.4526 106.817" stroke="#039900" stroke-width="2"/>
<path d="M37.6255 102.813L41.061 90.2756L47.8122 92.1255L44.3767 104.663L37.6255 102.813Z" stroke="#039900" stroke-width="2"/>
</svg>
