<svg width="21" height="23" viewBox="0 0 21 23" fill="none" xmlns="http://www.w3.org/2000/svg">
<g opacity="0.5">
<path fill-rule="evenodd" clip-rule="evenodd" d="M9.13117 4.4366C9.15053 4.45171 9.17201 4.46471 9.18924 4.48195C10.1497 5.44207 11.1097 6.40246 12.0699 7.36285C12.2566 7.54904 12.3441 7.77289 12.3324 8.036C12.3141 8.45452 11.9678 8.81099 11.5496 8.84255C11.2794 8.86297 11.0479 8.77837 10.8567 8.58714C9.67982 7.41059 8.50349 6.23351 7.32689 5.05723C7.1394 4.86971 7.04474 4.64613 7.05667 4.38063C7.06568 4.17614 7.141 3.99738 7.27624 3.84408C7.29268 3.82551 7.31018 3.80801 7.32768 3.7905C8.49978 2.61793 9.6724 1.44589 10.844 0.272794C10.9723 0.144424 11.1208 0.0566334 11.2993 0.0184406C11.7724 -0.0826109 12.2473 0.242823 12.3215 0.721028C12.3656 1.00562 12.2871 1.25334 12.0911 1.46366C12.0741 1.4817 12.0566 1.49894 12.0389 1.51618C11.089 2.46649 10.1391 3.4168 9.18871 4.36658C9.17148 4.38408 9.15026 4.39734 9.13064 4.41273C9.13117 4.42068 9.13117 4.42864 9.13117 4.4366Z" fill="#570097"/>
<path fill-rule="evenodd" clip-rule="evenodd" d="M0.666748 1.66961C0.694934 1.6659 0.722853 1.65873 0.751039 1.65873C1.53811 1.6582 2.32517 1.6582 3.11197 1.6582C4.36038 1.6582 5.60878 1.6582 6.85719 1.6582C6.88351 1.6582 6.9101 1.6582 6.94068 1.6582C6.94254 1.68076 6.94493 1.69854 6.94493 1.71632C6.94493 2.20166 6.94467 2.68673 6.946 3.17207C6.94626 3.21187 6.93004 3.23682 6.90372 3.2615C6.73727 3.41965 6.60804 3.60301 6.52322 3.81689C6.2972 4.38476 6.42935 5.02639 6.86197 5.45866C7.55784 6.1539 8.25397 6.84887 8.95009 7.54411C8.96578 7.56003 8.9812 7.57648 9.00008 7.59638C8.98652 7.60381 8.97695 7.61018 8.96658 7.61469C8.2085 7.94029 7.68042 8.4925 7.35309 9.2432C7.20525 9.58206 7.10846 9.93605 7.04491 10.2996C6.97232 10.7181 6.94493 11.1397 6.94493 11.564C6.94493 15.2321 6.94493 18.8998 6.94493 22.5679C6.94493 22.6008 6.94573 22.6334 6.946 22.6663C4.85336 22.6663 2.76072 22.6663 0.666748 22.6663C0.666748 15.6675 0.666748 8.6687 0.666748 1.66961Z" fill="#570097"/>
<path fill-rule="evenodd" clip-rule="evenodd" d="M14.4551 22.39C14.4559 22.3595 14.4572 22.3289 14.4572 22.2987C14.4572 18.6008 14.4575 14.903 14.457 11.2054C14.4567 10.691 14.3966 10.1843 14.2588 9.68777C14.1207 9.19154 13.9069 8.73244 13.583 8.32835C13.4289 8.13645 13.2549 7.96455 13.0594 7.81555C13.0325 7.79501 13.022 7.77395 13.0206 7.73973C13.0056 7.33907 12.8564 6.99553 12.5726 6.71148C12.0255 6.16445 11.4781 5.61821 10.931 5.07171C10.6738 4.81504 10.4171 4.55811 10.1601 4.30145C10.1446 4.28565 10.1295 4.26933 10.1111 4.24959C10.1301 4.23011 10.1467 4.213 10.1638 4.19615C10.9489 3.4114 11.7332 2.62561 12.5207 1.84324C12.7276 1.63764 12.8868 1.40624 12.9669 1.1243C12.9679 1.12036 12.9706 1.1172 12.9777 1.10561C12.9943 1.10561 13.0159 1.10561 13.0378 1.10561C13.4239 1.10351 13.8089 1.1243 14.1929 1.16642C14.8523 1.23908 15.4961 1.3786 16.1194 1.60894C16.9912 1.93116 17.7629 2.41106 18.4183 3.07234C18.9064 3.56514 19.2983 4.12665 19.6122 4.7437C19.9572 5.42183 20.1949 6.1376 20.3599 6.87865C20.4537 7.3009 20.5227 7.72709 20.5707 8.15672C20.6234 8.6274 20.6566 9.09888 20.6579 9.57246C20.6579 9.59405 20.6637 9.6159 20.6666 9.63775C20.6666 13.8884 20.6666 18.1391 20.6666 22.39C18.5962 22.39 16.5255 22.39 14.4551 22.39Z" fill="#570097"/>
</g>
</svg>
