<svg width="66" height="66" viewBox="0 0 66 66" fill="none" xmlns="http://www.w3.org/2000/svg">
<rect x="1" y="1" width="64" height="64" rx="6" fill="#FAF8FA" stroke="#F0F0F0"/>
<g opacity="0.5">
<path fill-rule="evenodd" clip-rule="evenodd" d="M32.1312 25.4366C32.1505 25.4517 32.172 25.4647 32.1892 25.482C33.1497 26.4421 34.1097 27.4025 35.0699 28.3628C35.2566 28.549 35.3441 28.7729 35.3324 29.036C35.3141 29.4545 34.9678 29.811 34.5496 29.8426C34.2794 29.863 34.0479 29.7784 33.8567 29.5871C32.6798 28.4106 31.5035 27.2335 30.3269 26.0572C30.1394 25.8697 30.0447 25.6461 30.0567 25.3806C30.0657 25.1761 30.141 24.9974 30.2762 24.8441C30.2927 24.8255 30.3102 24.808 30.3277 24.7905C31.4998 23.6179 32.6724 22.4459 33.844 21.2728C33.9723 21.1444 34.1208 21.0566 34.2993 21.0184C34.7724 20.9174 35.2473 21.2428 35.3215 21.721C35.3656 22.0056 35.2871 22.2533 35.0911 22.4637C35.0741 22.4817 35.0566 22.4989 35.0389 22.5162C34.089 23.4665 33.1391 24.4168 32.1887 25.3666C32.1715 25.3841 32.1503 25.3973 32.1306 25.4127C32.1312 25.4207 32.1312 25.4286 32.1312 25.4366Z" fill="#570097"/>
<path fill-rule="evenodd" clip-rule="evenodd" d="M23.6667 22.6696C23.6949 22.6659 23.7229 22.6587 23.751 22.6587C24.5381 22.6582 25.3252 22.6582 26.112 22.6582C27.3604 22.6582 28.6088 22.6582 29.8572 22.6582C29.8835 22.6582 29.9101 22.6582 29.9407 22.6582C29.9425 22.6808 29.9449 22.6985 29.9449 22.7163C29.9449 23.2017 29.9447 23.6867 29.946 24.1721C29.9463 24.2119 29.93 24.2368 29.9037 24.2615C29.7373 24.4196 29.608 24.603 29.5232 24.8169C29.2972 25.3848 29.4294 26.0264 29.862 26.4587C30.5578 27.1539 31.254 27.8489 31.9501 28.5441C31.9658 28.56 31.9812 28.5765 32.0001 28.5964C31.9865 28.6038 31.9769 28.6102 31.9666 28.6147C31.2085 28.9403 30.6804 29.4925 30.3531 30.2432C30.2053 30.5821 30.1085 30.936 30.0449 31.2996C29.9723 31.7181 29.9449 32.1397 29.9449 32.564C29.9449 36.2321 29.9449 39.8998 29.9449 43.5679C29.9449 43.6008 29.9457 43.6334 29.946 43.6663C27.8534 43.6663 25.7607 43.6663 23.6667 43.6663C23.6667 36.6675 23.6667 29.6687 23.6667 22.6696Z" fill="#570097"/>
<path fill-rule="evenodd" clip-rule="evenodd" d="M37.4551 43.39C37.4559 43.3595 37.4572 43.3289 37.4572 43.2987C37.4572 39.6008 37.4575 35.903 37.457 32.2054C37.4567 31.691 37.3966 31.1843 37.2588 30.6878C37.1207 30.1915 36.9069 29.7324 36.583 29.3284C36.4289 29.1364 36.2549 28.9645 36.0594 28.8155C36.0325 28.795 36.022 28.774 36.0206 28.7397C36.0056 28.3391 35.8564 27.9955 35.5726 27.7115C35.0255 27.1645 34.4781 26.6182 33.931 26.0717C33.6738 25.815 33.4171 25.5581 33.1601 25.3014C33.1446 25.2857 33.1295 25.2693 33.1111 25.2496C33.1301 25.2301 33.1467 25.213 33.1638 25.1961C33.9489 24.4114 34.7332 23.6256 35.5207 22.8432C35.7276 22.6376 35.8868 22.4062 35.9669 22.1243C35.9679 22.1204 35.9706 22.1172 35.9777 22.1056C35.9943 22.1056 36.0159 22.1056 36.0378 22.1056C36.4239 22.1035 36.8089 22.1243 37.1929 22.1664C37.8523 22.2391 38.4961 22.3786 39.1194 22.6089C39.9912 22.9312 40.7629 23.4111 41.4183 24.0723C41.9064 24.5651 42.2983 25.1267 42.6122 25.7437C42.9572 26.4218 43.1949 27.1376 43.3599 27.8786C43.4537 28.3009 43.5227 28.7271 43.5707 29.1567C43.6234 29.6274 43.6566 30.0989 43.6579 30.5725C43.6579 30.5941 43.6637 30.6159 43.6666 30.6378C43.6666 34.8884 43.6666 39.1391 43.6666 43.39C41.5962 43.39 39.5255 43.39 37.4551 43.39Z" fill="#570097"/>
</g>
</svg>
