<svg width="62" height="100" viewBox="0 0 62 100" fill="none" xmlns="http://www.w3.org/2000/svg">
<path d="M13.2033 13.7801L20.4757 6.52949L30.7451 6.54494L37.9957 13.8174L37.9803 24.0868L30.7078 31.3374L20.4384 31.322L13.1878 24.0495L13.2033 13.7801Z" fill="#F6E4E4" stroke="#99008A" stroke-width="2"/>
<path d="M19.6663 16.4687L23.1447 13.0008L28.0565 13.0082L31.5245 16.4866L31.5171 21.3984L28.0387 24.8664L23.1269 24.859L19.6589 21.3806L19.6663 16.4687Z" stroke="#99008A" stroke-width="2"/>
<path d="M20.6351 6.9155L23.1135 12.9245M28.689 13.3291L30.7519 6.52881M31.6009 16.455L37.6098 13.9766M31.4678 21.3776L37.9965 24.0934M28.0703 24.9424L30.7394 31.4135M23.1477 24.8093L20.2412 30.8758M19.583 21.4118L13.574 23.8902M19.716 16.4892L13.6495 13.5827" stroke="#99008A" stroke-width="2"/>
<path d="M8.67077 25.0123L18.1584 21.0824L27.6461 25.0123L31.5761 34.5L27.6461 43.9877L18.1584 47.9176L8.67077 43.9877L4.74084 34.5L8.67077 25.0123Z" fill="#F6E4E4" stroke="#99008A" stroke-width="2"/>
<path d="M13.6205 29.9621L18.1584 28.0824L22.6964 29.9621L24.5761 34.5L22.6964 39.0379L18.1584 40.9176L13.6205 39.0379L11.7408 34.5L13.6205 29.9621Z" stroke="#99008A" stroke-width="2"/>
<path d="M18.1584 21.5V28M23.1584 30.5L27.6584 25M24.6584 34.5H31.1584M22.6584 39L27.6584 44M18.1584 41V48M13.6584 39L8.65845 43.5M11.6584 34.5H5.15845M13.6584 30L9.15845 25" stroke="#99008A" stroke-width="2"/>
<path d="M27.7699 22.3468L35.0424 15.0961L45.3118 15.1116L52.5624 22.3841L52.5469 32.6534L45.2745 39.9041L35.0051 39.8886L27.7545 32.6161L27.7699 22.3468Z" fill="#F6E4E4" stroke="#99008A" stroke-width="2"/>
<path d="M34.2329 25.0354L37.7113 21.5674L42.6232 21.5748L46.0911 25.0532L46.0837 29.965L42.6053 33.433L37.6935 33.4256L34.2256 29.9472L34.2329 25.0354Z" stroke="#99008A" stroke-width="2"/>
<path d="M35.2017 15.4822L37.6801 21.4911M43.2557 21.8958L45.3186 15.0955M46.1675 25.0217L52.1765 22.5432M46.0344 29.9443L52.5632 32.6601M42.637 33.509L45.306 39.9802M37.7143 33.3759L34.8079 39.4424M34.1496 29.9785L28.1406 32.4569M34.2827 25.0558L28.2162 22.1494" stroke="#99008A" stroke-width="2"/>
<path d="M56.3171 30.2683V91.7317H44.7927H1V30.2683H44.7927H56.3171Z" fill="white"/>
<path d="M56.3171 91.7317V30.2683H44.7927M56.3171 91.7317H44.7927M56.3171 91.7317L50.1707 85.5854M44.7927 30.2683H1V91.7317H44.7927M44.7927 30.2683V91.7317M44.7927 91.7317L50.1707 85.5854M50.1707 85.5854V31.8049M12.5244 39.4878C12.5244 51.0122 10.9878 59.4634 21.7439 59.4634C32.5 59.4634 30.9634 51.7805 30.9634 39.4878" stroke="#570097" stroke-width="2"/>
<path d="M37.6708 76.0123L47.1584 72.0824L56.6461 76.0123L60.5761 85.5L56.6461 94.9877L47.1584 98.9176L37.6708 94.9877L33.7408 85.5L37.6708 76.0123Z" fill="#F6E4E4" stroke="#99008A" stroke-width="2"/>
<path d="M42.6205 80.9621L47.1584 79.0824L51.6964 80.9621L53.5761 85.5L51.6964 90.0379L47.1584 91.9176L42.6205 90.0379L40.7408 85.5L42.6205 80.9621Z" stroke="#99008A" stroke-width="2"/>
<path d="M47.1584 72.5V79M52.1584 81.5L56.6584 76M53.6584 85.5H60.1584M51.6584 90L56.6584 95M47.1584 92V99M42.6584 90L37.6584 94.5M40.6584 85.5H34.1584M42.6584 81L38.1584 76" stroke="#99008A" stroke-width="2"/>
</svg>
