<svg width="272" height="162" viewBox="0 0 272 162" fill="none" xmlns="http://www.w3.org/2000/svg">
<g clip-path="url(#clip0)">
<path fill-rule="evenodd" clip-rule="evenodd" d="M138.526 47L60 28.9231L191.875 0L271 16.8718L138.526 47Z" fill="#F6F1F8" stroke="#570097" stroke-width="2" stroke-linejoin="round"/>
<path fill-rule="evenodd" clip-rule="evenodd" d="M192 0L271 16.8354V95L192 67.943V0Z" stroke="#570097" stroke-width="2" stroke-linejoin="round"/>
<path fill-rule="evenodd" clip-rule="evenodd" d="M139 47L272 17V95L139 140V47Z" fill="white" stroke="#570097" stroke-width="2" stroke-linejoin="round"/>
<path fill-rule="evenodd" clip-rule="evenodd" d="M139 47L60 29V110L139 140V47Z" fill="white" stroke="#570097" stroke-width="2" stroke-linejoin="round"/>
<path opacity="0.4" d="M146.461 150.737C146.315 151.035 146.439 151.394 146.737 151.539L151.59 153.908C151.887 154.053 152.247 153.93 152.392 153.632C152.537 153.334 152.414 152.975 152.116 152.829L147.802 150.724L149.908 146.41C150.053 146.113 149.93 145.753 149.632 145.608C149.334 145.463 148.975 145.586 148.829 145.884L146.461 150.737ZM148.332 151.176C148.645 151.069 148.812 150.727 148.704 150.414C148.596 150.101 148.255 149.934 147.941 150.042L148.332 151.176ZM150.214 149.26C149.901 149.368 149.734 149.709 149.842 150.022C149.95 150.336 150.291 150.502 150.604 150.395L150.214 149.26ZM152.877 149.613C153.19 149.505 153.357 149.164 153.249 148.85C153.141 148.537 152.8 148.37 152.487 148.478L152.877 149.613ZM154.759 147.696C154.446 147.804 154.279 148.145 154.387 148.459C154.495 148.772 154.836 148.939 155.15 148.831L154.759 147.696ZM157.422 148.049C157.736 147.941 157.902 147.6 157.795 147.287C157.687 146.973 157.345 146.807 157.032 146.914L157.422 148.049ZM159.305 146.133C158.991 146.24 158.825 146.582 158.933 146.895C159.04 147.209 159.382 147.375 159.695 147.267L159.305 146.133ZM161.968 146.486C162.281 146.378 162.448 146.036 162.34 145.723C162.232 145.41 161.891 145.243 161.578 145.351L161.968 146.486ZM163.85 144.569C163.537 144.677 163.37 145.018 163.478 145.332C163.586 145.645 163.927 145.812 164.241 145.704L163.85 144.569ZM166.513 144.922C166.827 144.814 166.993 144.473 166.886 144.159C166.778 143.846 166.436 143.679 166.123 143.787L166.513 144.922ZM168.396 143.005C168.082 143.113 167.916 143.455 168.024 143.768C168.131 144.081 168.473 144.248 168.786 144.14L168.396 143.005ZM171.059 143.358C171.372 143.25 171.539 142.909 171.431 142.596C171.323 142.282 170.982 142.116 170.668 142.224L171.059 143.358ZM172.941 141.442C172.628 141.55 172.461 141.891 172.569 142.204C172.677 142.518 173.018 142.684 173.332 142.576L172.941 141.442ZM175.604 141.795C175.918 141.687 176.084 141.345 175.976 141.032C175.869 140.719 175.527 140.552 175.214 140.66L175.604 141.795ZM177.487 139.878C177.173 139.986 177.007 140.327 177.114 140.641C177.222 140.954 177.564 141.121 177.877 141.013L177.487 139.878ZM180.15 140.231C180.463 140.123 180.63 139.782 180.522 139.468C180.414 139.155 180.073 138.988 179.759 139.096L180.15 140.231ZM182.032 138.314C181.719 138.422 181.552 138.764 181.66 139.077C181.768 139.39 182.109 139.557 182.422 139.449L182.032 138.314ZM184.695 138.667C185.009 138.56 185.175 138.218 185.067 137.905C184.96 137.591 184.618 137.425 184.305 137.533L184.695 138.667ZM186.578 136.751C186.264 136.859 186.098 137.2 186.205 137.513C186.313 137.827 186.655 137.993 186.968 137.886L186.578 136.751ZM189.241 137.104C189.554 136.996 189.721 136.655 189.613 136.341C189.505 136.028 189.164 135.861 188.85 135.969L189.241 137.104ZM191.123 135.187C190.81 135.295 190.643 135.636 190.751 135.95C190.859 136.263 191.2 136.43 191.513 136.322L191.123 135.187ZM193.786 135.54C194.099 135.432 194.266 135.091 194.158 134.778C194.05 134.464 193.709 134.298 193.396 134.405L193.786 135.54ZM195.668 133.624C195.355 133.731 195.188 134.073 195.296 134.386C195.404 134.699 195.745 134.866 196.059 134.758L195.668 133.624ZM198.332 133.976C198.645 133.869 198.812 133.527 198.704 133.214C198.596 132.901 198.255 132.734 197.941 132.842L198.332 133.976ZM200.214 132.06C199.901 132.168 199.734 132.509 199.842 132.822C199.95 133.136 200.291 133.302 200.604 133.195L200.214 132.06ZM202.877 132.413C203.19 132.305 203.357 131.964 203.249 131.65C203.141 131.337 202.8 131.17 202.487 131.278L202.877 132.413ZM204.759 130.496C204.446 130.604 204.279 130.945 204.387 131.259C204.495 131.572 204.836 131.739 205.15 131.631L204.759 130.496ZM207.422 130.849C207.736 130.741 207.902 130.4 207.795 130.087C207.687 129.773 207.345 129.607 207.032 129.714L207.422 130.849ZM209.305 128.933C208.992 129.04 208.825 129.382 208.933 129.695C209.04 130.009 209.382 130.175 209.695 130.067L209.305 128.933ZM211.968 129.286C212.281 129.178 212.448 128.836 212.34 128.523C212.232 128.21 211.891 128.043 211.578 128.151L211.968 129.286ZM213.85 127.369C213.537 127.477 213.37 127.818 213.478 128.132C213.586 128.445 213.927 128.612 214.241 128.504L213.85 127.369ZM216.513 127.722C216.827 127.614 216.993 127.273 216.886 126.959C216.778 126.646 216.436 126.479 216.123 126.587L216.513 127.722ZM218.396 125.805C218.082 125.913 217.916 126.255 218.024 126.568C218.131 126.881 218.473 127.048 218.786 126.94L218.396 125.805ZM221.059 126.158C221.372 126.05 221.539 125.709 221.431 125.396C221.323 125.082 220.982 124.916 220.668 125.024L221.059 126.158ZM222.941 124.242C222.628 124.35 222.461 124.691 222.569 125.004C222.677 125.318 223.018 125.484 223.332 125.376L222.941 124.242ZM225.604 124.595C225.918 124.487 226.084 124.145 225.976 123.832C225.869 123.519 225.527 123.352 225.214 123.46L225.604 124.595ZM227.487 122.678C227.173 122.786 227.007 123.127 227.114 123.441C227.222 123.754 227.564 123.921 227.877 123.813L227.487 122.678ZM230.15 123.031C230.463 122.923 230.63 122.582 230.522 122.268C230.414 121.955 230.073 121.788 229.759 121.896L230.15 123.031ZM232.032 121.114C231.719 121.222 231.552 121.564 231.66 121.877C231.768 122.19 232.109 122.357 232.422 122.249L232.032 121.114ZM234.695 121.467C235.009 121.36 235.175 121.018 235.067 120.705C234.96 120.391 234.618 120.225 234.305 120.333L234.695 121.467ZM236.578 119.551C236.264 119.659 236.098 120 236.205 120.313C236.313 120.627 236.655 120.793 236.968 120.686L236.578 119.551ZM239.241 119.904C239.554 119.796 239.721 119.455 239.613 119.141C239.505 118.828 239.164 118.661 238.85 118.769L239.241 119.904ZM241.123 117.987C240.81 118.095 240.643 118.436 240.751 118.75C240.859 119.063 241.2 119.23 241.513 119.122L241.123 117.987ZM243.786 118.34C244.099 118.232 244.266 117.891 244.158 117.578C244.051 117.264 243.709 117.098 243.396 117.205L243.786 118.34ZM245.669 116.424C245.355 116.531 245.189 116.873 245.296 117.186C245.404 117.499 245.745 117.666 246.059 117.558L245.669 116.424ZM248.332 116.776C248.645 116.669 248.812 116.327 248.704 116.014C248.596 115.701 248.255 115.534 247.941 115.642L248.332 116.776ZM250.214 114.86C249.901 114.968 249.734 115.309 249.842 115.622C249.95 115.936 250.291 116.102 250.604 115.995L250.214 114.86ZM252.877 115.213C253.19 115.105 253.357 114.764 253.249 114.45C253.141 114.137 252.8 113.97 252.487 114.078L252.877 115.213ZM254.759 113.296C254.446 113.404 254.279 113.745 254.387 114.059C254.495 114.372 254.836 114.539 255.15 114.431L254.759 113.296ZM257.423 113.649C257.736 113.541 257.902 113.2 257.795 112.887C257.687 112.573 257.345 112.407 257.032 112.514L257.423 113.649ZM259.305 111.733C258.992 111.84 258.825 112.182 258.933 112.495C259.04 112.809 259.382 112.975 259.695 112.867L259.305 111.733ZM261.968 112.086C262.281 111.978 262.448 111.636 262.34 111.323C262.232 111.01 261.891 110.843 261.578 110.951L261.968 112.086ZM263.85 110.169C263.537 110.277 263.37 110.618 263.478 110.932C263.586 111.245 263.927 111.412 264.241 111.304L263.85 110.169ZM266.513 110.522C266.827 110.414 266.993 110.073 266.886 109.759C266.778 109.446 266.436 109.279 266.123 109.387L266.513 110.522ZM268.396 108.605C268.082 108.713 267.916 109.055 268.024 109.368C268.131 109.681 268.473 109.848 268.786 109.74L268.396 108.605ZM271.059 108.958C271.372 108.85 271.539 108.509 271.431 108.196C271.323 107.882 270.982 107.716 270.669 107.824L271.059 108.958ZM147.195 151.567L148.332 151.176L147.941 150.042L146.805 150.433L147.195 151.567ZM150.604 150.395L152.877 149.613L152.487 148.478L150.214 149.26L150.604 150.395ZM155.15 148.831L157.422 148.049L157.032 146.914L154.759 147.696L155.15 148.831ZM159.695 147.267L161.968 146.486L161.578 145.351L159.305 146.133L159.695 147.267ZM164.241 145.704L166.513 144.922L166.123 143.787L163.85 144.569L164.241 145.704ZM168.786 144.14L171.059 143.358L170.668 142.224L168.396 143.005L168.786 144.14ZM173.332 142.576L175.604 141.795L175.214 140.66L172.941 141.442L173.332 142.576ZM177.877 141.013L180.15 140.231L179.759 139.096L177.487 139.878L177.877 141.013ZM182.422 139.449L184.695 138.667L184.305 137.533L182.032 138.314L182.422 139.449ZM186.968 137.886L189.241 137.104L188.85 135.969L186.578 136.751L186.968 137.886ZM191.513 136.322L193.786 135.54L193.396 134.405L191.123 135.187L191.513 136.322ZM196.059 134.758L198.332 133.976L197.941 132.842L195.668 133.624L196.059 134.758ZM200.604 133.195L202.877 132.413L202.487 131.278L200.214 132.06L200.604 133.195ZM205.15 131.631L207.422 130.849L207.032 129.714L204.759 130.496L205.15 131.631ZM209.695 130.067L211.968 129.286L211.578 128.151L209.305 128.933L209.695 130.067ZM214.241 128.504L216.513 127.722L216.123 126.587L213.85 127.369L214.241 128.504ZM218.786 126.94L221.059 126.158L220.668 125.024L218.396 125.805L218.786 126.94ZM223.332 125.376L225.604 124.595L225.214 123.46L222.941 124.242L223.332 125.376ZM227.877 123.813L230.15 123.031L229.759 121.896L227.487 122.678L227.877 123.813ZM232.422 122.249L234.695 121.467L234.305 120.333L232.032 121.114L232.422 122.249ZM236.968 120.686L239.241 119.904L238.85 118.769L236.578 119.551L236.968 120.686ZM241.513 119.122L243.786 118.34L243.396 117.205L241.123 117.987L241.513 119.122ZM246.059 117.558L248.332 116.776L247.941 115.642L245.669 116.424L246.059 117.558ZM250.604 115.995L252.877 115.213L252.487 114.078L250.214 114.86L250.604 115.995ZM255.15 114.431L257.423 113.649L257.032 112.514L254.759 113.296L255.15 114.431ZM259.695 112.867L261.968 112.086L261.578 110.951L259.305 111.733L259.695 112.867ZM264.241 111.304L266.513 110.522L266.123 109.387L263.85 110.169L264.241 111.304ZM268.786 109.74L271.059 108.958L270.669 107.824L268.396 108.605L268.786 109.74Z" fill="#570097"/>
<path opacity="0.4" d="M132.233 151.553C132.538 151.425 132.682 151.073 132.553 150.767L130.46 145.79C130.331 145.484 129.979 145.341 129.674 145.469C129.369 145.598 129.225 145.949 129.353 146.255L131.214 150.68L126.79 152.54C126.484 152.669 126.341 153.021 126.469 153.326C126.598 153.631 126.949 153.775 127.255 153.647L132.233 151.553ZM55.7674 119.447C55.4619 119.575 55.3185 119.927 55.4469 120.233L57.5403 125.21C57.6688 125.516 58.0206 125.659 58.326 125.531C58.6315 125.402 58.775 125.051 58.6465 124.745L56.7857 120.32L61.2103 118.46C61.5158 118.331 61.6592 117.979 61.5308 117.674C61.4023 117.369 61.0506 117.225 60.7451 117.353L55.7674 119.447ZM56.891 121.011C57.1979 121.137 57.5481 120.989 57.6732 120.682C57.7984 120.376 57.6511 120.025 57.3443 119.9L56.891 121.011ZM59.5796 120.812C59.2727 120.687 58.9225 120.834 58.7974 121.141C58.6722 121.448 58.8195 121.798 59.1263 121.923L59.5796 120.812ZM61.3616 122.835C61.6685 122.96 62.0186 122.813 62.1438 122.506C62.2689 122.199 62.1217 121.849 61.8148 121.724L61.3616 122.835ZM64.0501 122.636C63.7433 122.51 63.3931 122.658 63.268 122.965C63.1428 123.271 63.2901 123.622 63.5969 123.747L64.0501 122.636ZM65.8322 124.659C66.139 124.784 66.4892 124.636 66.6144 124.33C66.7395 124.023 66.5923 123.673 66.2854 123.547L65.8322 124.659ZM68.5207 124.459C68.2139 124.334 67.8637 124.481 67.7386 124.788C67.6134 125.095 67.7607 125.445 68.0675 125.57L68.5207 124.459ZM70.3028 126.482C70.6096 126.607 70.9598 126.46 71.085 126.153C71.2101 125.846 71.0628 125.496 70.756 125.371L70.3028 126.482ZM72.9913 126.283C72.6845 126.158 72.3343 126.305 72.2091 126.612C72.084 126.918 72.2313 127.269 72.5381 127.394L72.9913 126.283ZM74.7734 128.306C75.0802 128.431 75.4304 128.283 75.5556 127.977C75.6807 127.67 75.5334 127.32 75.2266 127.194L74.7734 128.306ZM77.4619 128.106C77.1551 127.981 76.8049 128.128 76.6797 128.435C76.5546 128.742 76.7019 129.092 77.0087 129.217L77.4619 128.106ZM79.244 130.129C79.5508 130.254 79.901 130.107 80.0261 129.8C80.1513 129.493 80.004 129.143 79.6972 129.018L79.244 130.129ZM81.9325 129.93C81.6257 129.805 81.2755 129.952 81.1503 130.259C81.0252 130.566 81.1724 130.916 81.4793 131.041L81.9325 129.93ZM83.7146 131.953C84.0214 132.078 84.3716 131.93 84.4967 131.624C84.6219 131.317 84.4746 130.967 84.1678 130.841L83.7146 131.953ZM86.4031 131.753C86.0963 131.628 85.7461 131.775 85.6209 132.082C85.4958 132.389 85.643 132.739 85.9499 132.864L86.4031 131.753ZM88.1852 133.776C88.492 133.901 88.8422 133.754 88.9673 133.447C89.0925 133.14 88.9452 132.79 88.6384 132.665L88.1852 133.776ZM90.8737 133.577C90.5668 133.452 90.2167 133.599 90.0915 133.906C89.9663 134.213 90.1136 134.563 90.4204 134.688L90.8737 133.577ZM92.6557 135.6C92.9626 135.725 93.3128 135.578 93.4379 135.271C93.5631 134.964 93.4158 134.614 93.109 134.489L92.6557 135.6ZM95.3443 135.4C95.0374 135.275 94.6872 135.422 94.5621 135.729C94.4369 136.036 94.5842 136.386 94.891 136.511L95.3443 135.4ZM97.1263 137.423C97.4332 137.548 97.7833 137.401 97.9085 137.094C98.0336 136.787 97.8864 136.437 97.5795 136.312L97.1263 137.423ZM99.8148 137.224C99.508 137.099 99.1578 137.246 99.0327 137.553C98.9075 137.86 99.0548 138.21 99.3616 138.335L99.8148 137.224ZM101.597 139.247C101.904 139.372 102.254 139.225 102.379 138.918C102.504 138.611 102.357 138.261 102.05 138.136L101.597 139.247ZM104.285 139.047C103.979 138.922 103.628 139.069 103.503 139.376C103.378 139.683 103.525 140.033 103.832 140.158L104.285 139.047ZM106.067 141.07C106.374 141.195 106.725 141.048 106.85 140.741C106.975 140.434 106.828 140.084 106.521 139.959L106.067 141.07ZM108.756 140.871C108.449 140.746 108.099 140.893 107.974 141.2C107.849 141.507 107.996 141.857 108.303 141.982L108.756 140.871ZM110.538 142.894C110.845 143.019 111.195 142.872 111.32 142.565C111.445 142.258 111.298 141.908 110.991 141.783L110.538 142.894ZM113.227 142.694C112.92 142.569 112.57 142.717 112.444 143.023C112.319 143.33 112.467 143.68 112.773 143.806L113.227 142.694ZM115.009 144.717C115.315 144.842 115.666 144.695 115.791 144.388C115.916 144.082 115.769 143.731 115.462 143.606L115.009 144.717ZM117.697 144.518C117.39 144.393 117.04 144.54 116.915 144.847C116.79 145.154 116.937 145.504 117.244 145.629L117.697 144.518ZM119.479 146.541C119.786 146.666 120.136 146.519 120.261 146.212C120.387 145.905 120.239 145.555 119.932 145.43L119.479 146.541ZM122.168 146.341C121.861 146.216 121.511 146.364 121.386 146.67C121.26 146.977 121.408 147.327 121.715 147.453L122.168 146.341ZM123.95 148.364C124.257 148.49 124.607 148.342 124.732 148.035C124.857 147.729 124.71 147.378 124.403 147.253L123.95 148.364ZM126.638 148.165C126.332 148.04 125.981 148.187 125.856 148.494C125.731 148.801 125.878 149.151 126.185 149.276L126.638 148.165ZM128.42 150.188C128.727 150.313 129.077 150.166 129.203 149.859C129.328 149.552 129.18 149.202 128.874 149.077L128.42 150.188ZM131.109 149.989C130.802 149.863 130.452 150.011 130.327 150.317C130.202 150.624 130.349 150.975 130.656 151.1L131.109 149.989ZM55.7734 120.556L56.891 121.011L57.3443 119.9L56.2266 119.444L55.7734 120.556ZM59.1263 121.923L61.3616 122.835L61.8148 121.724L59.5796 120.812L59.1263 121.923ZM63.5969 123.747L65.8322 124.659L66.2854 123.547L64.0501 122.636L63.5969 123.747ZM68.0675 125.57L70.3028 126.482L70.756 125.371L68.5207 124.459L68.0675 125.57ZM72.5381 127.394L74.7734 128.306L75.2266 127.194L72.9913 126.283L72.5381 127.394ZM77.0087 129.217L79.244 130.129L79.6972 129.018L77.4619 128.106L77.0087 129.217ZM81.4793 131.041L83.7146 131.953L84.1678 130.841L81.9325 129.93L81.4793 131.041ZM85.9499 132.864L88.1852 133.776L88.6384 132.665L86.4031 131.753L85.9499 132.864ZM90.4204 134.688L92.6557 135.6L93.109 134.489L90.8737 133.577L90.4204 134.688ZM94.891 136.511L97.1263 137.423L97.5795 136.312L95.3443 135.4L94.891 136.511ZM99.3616 138.335L101.597 139.247L102.05 138.136L99.8148 137.224L99.3616 138.335ZM103.832 140.158L106.067 141.07L106.521 139.959L104.285 139.047L103.832 140.158ZM108.303 141.982L110.538 142.894L110.991 141.783L108.756 140.871L108.303 141.982ZM112.773 143.806L115.009 144.717L115.462 143.606L113.227 142.694L112.773 143.806ZM117.244 145.629L119.479 146.541L119.932 145.43L117.697 144.518L117.244 145.629ZM121.715 147.453L123.95 148.364L124.403 147.253L122.168 146.341L121.715 147.453ZM126.185 149.276L128.42 150.188L128.874 149.077L126.638 148.165L126.185 149.276ZM130.656 151.1L131.773 151.556L132.227 150.444L131.109 149.989L130.656 151.1Z" fill="#570097"/>
<path opacity="0.4" d="M46.4243 28.5757C46.1899 28.3414 45.8101 28.3414 45.5757 28.5757L41.7574 32.3941C41.523 32.6284 41.523 33.0083 41.7574 33.2426C41.9917 33.477 42.3716 33.477 42.6059 33.2426L46 29.8485L49.3941 33.2426C49.6284 33.477 50.0083 33.477 50.2426 33.2426C50.477 33.0083 50.477 32.6284 50.2426 32.3941L46.4243 28.5757ZM45.4 30.2121C45.4 30.5435 45.6686 30.8121 46 30.8121C46.3314 30.8121 46.6 30.5435 46.6 30.2121H45.4ZM46.6 32.6364C46.6 32.305 46.3314 32.0364 46 32.0364C45.6686 32.0364 45.4 32.305 45.4 32.6364H46.6ZM45.4 35.0606C45.4 35.392 45.6686 35.6606 46 35.6606C46.3314 35.6606 46.6 35.392 46.6 35.0606H45.4ZM46.6 37.4848C46.6 37.1535 46.3314 36.8848 46 36.8848C45.6686 36.8848 45.4 37.1535 45.4 37.4848H46.6ZM45.4 39.9091C45.4 40.2405 45.6686 40.5091 46 40.5091C46.3314 40.5091 46.6 40.2405 46.6 39.9091H45.4ZM46.6 42.3333C46.6 42.002 46.3314 41.7333 46 41.7333C45.6686 41.7333 45.4 42.002 45.4 42.3333H46.6ZM45.4 44.7576C45.4 45.0889 45.6686 45.3576 46 45.3576C46.3314 45.3576 46.6 45.0889 46.6 44.7576H45.4ZM46.6 47.1818C46.6 46.8504 46.3314 46.5818 46 46.5818C45.6686 46.5818 45.4 46.8504 45.4 47.1818H46.6ZM45.4 49.6061C45.4 49.9374 45.6686 50.2061 46 50.2061C46.3314 50.2061 46.6 49.9374 46.6 49.6061H45.4ZM46.6 52.0303C46.6 51.6989 46.3314 51.4303 46 51.4303C45.6686 51.4303 45.4 51.6989 45.4 52.0303H46.6ZM45.4 54.4545C45.4 54.7859 45.6686 55.0545 46 55.0545C46.3314 55.0545 46.6 54.7859 46.6 54.4545H45.4ZM46.6 56.8788C46.6 56.5474 46.3314 56.2788 46 56.2788C45.6686 56.2788 45.4 56.5474 45.4 56.8788H46.6ZM45.4 59.303C45.4 59.6344 45.6686 59.903 46 59.903C46.3314 59.903 46.6 59.6344 46.6 59.303H45.4ZM46.6 61.7273C46.6 61.3959 46.3314 61.1273 46 61.1273C45.6686 61.1273 45.4 61.3959 45.4 61.7273H46.6ZM45.4 64.1515C45.4 64.4829 45.6686 64.7515 46 64.7515C46.3314 64.7515 46.6 64.4829 46.6 64.1515H45.4ZM46.6 66.5758C46.6 66.2444 46.3314 65.9758 46 65.9758C45.6686 65.9758 45.4 66.2444 45.4 66.5758H46.6ZM45.4 69C45.4 69.3314 45.6686 69.6 46 69.6C46.3314 69.6 46.6 69.3314 46.6 69H45.4ZM46.6 71.4242C46.6 71.0929 46.3314 70.8242 46 70.8242C45.6686 70.8242 45.4 71.0929 45.4 71.4242H46.6ZM45.4 73.8485C45.4 74.1799 45.6686 74.4485 46 74.4485C46.3314 74.4485 46.6 74.1799 46.6 73.8485H45.4ZM46.6 76.2727C46.6 75.9414 46.3314 75.6727 46 75.6727C45.6686 75.6727 45.4 75.9414 45.4 76.2727H46.6ZM45.4 78.697C45.4 79.0283 45.6686 79.297 46 79.297C46.3314 79.297 46.6 79.0283 46.6 78.697H45.4ZM46.6 81.1212C46.6 80.7898 46.3314 80.5212 46 80.5212C45.6686 80.5212 45.4 80.7898 45.4 81.1212H46.6ZM45.4 83.5455C45.4 83.8768 45.6686 84.1455 46 84.1455C46.3314 84.1455 46.6 83.8768 46.6 83.5455H45.4ZM46.6 85.9697C46.6 85.6383 46.3314 85.3697 46 85.3697C45.6686 85.3697 45.4 85.6383 45.4 85.9697H46.6ZM45.4 88.394C45.4 88.7253 45.6686 88.9939 46 88.9939C46.3314 88.9939 46.6 88.7253 46.6 88.394H45.4ZM46.6 90.8182C46.6 90.4868 46.3314 90.2182 46 90.2182C45.6686 90.2182 45.4 90.4868 45.4 90.8182H46.6ZM45.4 93.2424C45.4 93.5738 45.6686 93.8424 46 93.8424C46.3314 93.8424 46.6 93.5738 46.6 93.2424H45.4ZM46.6 95.6667C46.6 95.3353 46.3314 95.0667 46 95.0667C45.6686 95.0667 45.4 95.3353 45.4 95.6667H46.6ZM45.4 98.0909C45.4 98.4223 45.6686 98.6909 46 98.6909C46.3314 98.6909 46.6 98.4223 46.6 98.0909H45.4ZM46.6 100.515C46.6 100.184 46.3314 99.9152 46 99.9152C45.6686 99.9152 45.4 100.184 45.4 100.515H46.6ZM45.4 102.939C45.4 103.271 45.6686 103.539 46 103.539C46.3314 103.539 46.6 103.271 46.6 102.939H45.4ZM46.6 105.364C46.6 105.032 46.3314 104.764 46 104.764C45.6686 104.764 45.4 105.032 45.4 105.364H46.6ZM45.4 107.788C45.4 108.119 45.6686 108.388 46 108.388C46.3314 108.388 46.6 108.119 46.6 107.788H45.4ZM45.4 29V30.2121H46.6V29H45.4ZM45.4 32.6364V35.0606H46.6V32.6364H45.4ZM45.4 37.4848V39.9091H46.6V37.4848H45.4ZM45.4 42.3333V44.7576H46.6V42.3333H45.4ZM45.4 47.1818V49.6061H46.6V47.1818H45.4ZM45.4 52.0303V54.4545H46.6V52.0303H45.4ZM45.4 56.8788V59.303H46.6V56.8788H45.4ZM45.4 61.7273V64.1515H46.6V61.7273H45.4ZM45.4 66.5758V69H46.6V66.5758H45.4ZM45.4 71.4242V73.8485H46.6V71.4242H45.4ZM45.4 76.2727V78.697H46.6V76.2727H45.4ZM45.4 81.1212V83.5455H46.6V81.1212H45.4ZM45.4 85.9697V88.394H46.6V85.9697H45.4ZM45.4 90.8182V93.2424H46.6V90.8182H45.4ZM45.4 95.6667V98.0909H46.6V95.6667H45.4ZM45.4 100.515V102.939H46.6V100.515H45.4ZM45.4 105.364V107.788H46.6V105.364H45.4Z" fill="#570097"/>
<path d="M228.149 147.079H225.276L227.382 144.674C227.993 143.985 228.292 143.27 228.292 142.503C228.292 141.762 228.019 141.151 227.486 140.67C226.953 140.189 226.316 139.942 225.549 139.942C224.795 139.942 224.158 140.163 223.638 140.618C223.118 141.073 222.793 141.684 222.676 142.451L224.158 142.724C224.262 141.996 224.795 141.489 225.484 141.489C226.199 141.489 226.706 141.931 226.706 142.503C226.706 142.841 226.537 143.218 226.186 143.621L222.715 147.781V148.6H228.149V147.079ZM229.813 144.349C229.813 147.274 230.866 148.73 232.972 148.73C235.429 148.73 236.092 146.78 236.092 144.349C236.092 143.049 235.923 142.074 235.468 141.242C235.013 140.41 234.168 139.942 232.972 139.942C230.866 139.942 229.813 141.411 229.813 144.349ZM231.412 144.349C231.412 142.451 231.932 141.502 232.972 141.502C233.999 141.502 234.506 142.451 234.506 144.349C234.506 146.234 233.999 147.17 232.972 147.17C231.932 147.17 231.412 146.234 231.412 144.349ZM238.101 143.127C238.478 142.828 238.842 142.36 239.219 141.697C239.596 141.034 239.804 140.345 239.817 139.63H238.478C238.478 140.579 238.192 141.502 237.919 141.97C237.789 142.204 237.62 142.477 237.399 142.789L238.101 143.127ZM240.22 143.127C240.597 142.828 240.961 142.36 241.338 141.697C241.715 141.034 241.923 140.345 241.949 139.63H240.597C240.597 140.579 240.311 141.502 240.051 141.97C239.921 142.191 239.739 142.464 239.518 142.789L240.22 143.127ZM251.879 148.6V147.118H248.421V139.643H246.757V148.6H251.879Z" fill="#570097"/>
<path d="M51.707 152.163L53.137 151.591V158H54.736V149.394L51.707 150.733V152.163ZM62.0589 156.479H59.1859L61.2919 154.074C61.9029 153.385 62.2019 152.67 62.2019 151.903C62.2019 151.162 61.9289 150.551 61.3959 150.07C60.8629 149.589 60.2259 149.342 59.4589 149.342C58.7049 149.342 58.0679 149.563 57.5479 150.018C57.0279 150.473 56.7029 151.084 56.5859 151.851L58.0679 152.124C58.1719 151.396 58.7049 150.889 59.3939 150.889C60.1089 150.889 60.6159 151.331 60.6159 151.903C60.6159 152.241 60.4469 152.618 60.0959 153.021L56.6249 157.181V158H62.0589V156.479ZM64.1781 152.527C64.5551 152.228 64.9191 151.76 65.2961 151.097C65.6731 150.434 65.8811 149.745 65.8941 149.03H64.5551C64.5551 149.979 64.2691 150.902 63.9961 151.37C63.8661 151.604 63.6971 151.877 63.4761 152.189L64.1781 152.527ZM66.2971 152.527C66.6741 152.228 67.0381 151.76 67.4151 151.097C67.7921 150.434 68.0001 149.745 68.0261 149.03H66.6741C66.6741 149.979 66.3881 150.902 66.1281 151.37C65.9981 151.591 65.8161 151.864 65.5951 152.189L66.2971 152.527ZM77.7703 150.291H76.4443L75.0793 155.283L73.1683 149.043H71.3743L74.3903 158H75.7423L77.0943 152.917L78.4723 158H79.8113L82.8533 149.043H81.0463L79.1223 155.283L77.7703 150.291Z" fill="#570097"/>
<path d="M0.507 69.163L1.937 68.591V75H3.536V66.394L0.507 67.733V69.163ZM10.859 73.479H7.98596L10.092 71.074C10.703 70.385 11.002 69.67 11.002 68.903C11.002 68.162 10.729 67.551 10.196 67.07C9.66296 66.589 9.02596 66.342 8.25896 66.342C7.50496 66.342 6.86796 66.563 6.34796 67.018C5.82796 67.473 5.50296 68.084 5.38596 68.851L6.86796 69.124C6.97196 68.396 7.50496 67.889 8.19396 67.889C8.90896 67.889 9.41596 68.331 9.41596 68.903C9.41596 69.241 9.24696 69.618 8.89596 70.021L5.42496 74.181V75H10.859V73.479ZM12.9782 69.527C13.3552 69.228 13.7192 68.76 14.0962 68.097C14.4732 67.434 14.6812 66.745 14.6942 66.03H13.3552C13.3552 66.979 13.0692 67.902 12.7962 68.37C12.6662 68.604 12.4972 68.877 12.2762 69.189L12.9782 69.527ZM15.0972 69.527C15.4742 69.228 15.8382 68.76 16.2152 68.097C16.5922 67.434 16.8002 66.745 16.8262 66.03H15.4742C15.4742 66.979 15.1882 67.902 14.9282 68.37C14.7982 68.591 14.6162 68.864 14.3952 69.189L15.0972 69.527ZM26.8726 69.8H23.2846V66.043H21.6336V75H23.2846V71.295H26.8726V75H28.5496V66.043H26.8726V69.8Z" fill="#570097"/>
</g>
<defs>
<clipPath id="clip0">
<rect width="272" height="162" fill="white"/>
</clipPath>
</defs>
</svg>
