<svg width="120" height="120" viewBox="0 0 120 120" fill="none" xmlns="http://www.w3.org/2000/svg">
<path fill-rule="evenodd" clip-rule="evenodd" d="M78.988 115C78.9918 114.851 78.9982 114.703 78.9982 114.554C78.9995 96.4853 79.0007 78.417 78.9969 60.35C78.9969 57.8379 78.7079 55.3605 78.0394 52.9359C77.3735 50.51 76.3395 48.2667 74.7746 46.2923C74.031 45.3546 73.1919 44.5146 72.2446 43.7866C72.1159 43.6863 72.065 43.5834 72.0586 43.4162C71.9848 41.4584 71.2641 39.7798 69.8927 38.3932C67.2519 35.7204 64.6047 33.0501 61.9613 30.3797C60.7211 29.1256 59.4783 27.8715 58.2368 26.6161C58.1617 26.5402 58.0904 26.4592 58 26.3627C58.0917 26.2675 58.1732 26.1839 58.2547 26.1016C62.0504 22.2685 65.8372 18.4277 69.6419 14.6048C70.644 13.6003 71.4105 12.4709 71.7976 11.092C71.8027 11.0727 71.8167 11.0573 71.8511 11.0007C71.93 11.0007 72.0357 11.002 72.1401 11.0007C74.0068 10.9904 75.8659 11.0933 77.7211 11.2991C80.9082 11.6528 84.0176 12.3359 87.029 13.4601C91.2424 15.0345 94.9694 17.3806 98.1361 20.6118C100.496 23.0197 102.388 25.7633 103.905 28.777C105.571 32.0905 106.721 35.5879 107.518 39.2087C107.971 41.2719 108.303 43.3544 108.535 45.4549C108.791 47.7535 108.953 50.0572 108.957 52.3712C108.957 52.478 108.985 52.5834 109 52.6902C109 73.4597 109 94.2305 109 115C98.9956 115 88.9924 115 78.988 115Z" fill="black"/>
<path fill-rule="evenodd" clip-rule="evenodd" d="M12 13.0556C12.1353 13.0376 12.2693 13.0028 12.4059 13.0028C16.1825 12.9989 19.9604 13.0002 23.7384 13.0002C29.7307 13.0002 35.7218 13.0002 41.7154 13.0002C41.8417 13.0002 41.9681 13.0002 42.1161 13.0002C42.1238 13.1097 42.1366 13.196 42.1366 13.2824C42.1378 15.6376 42.134 17.994 42.1417 20.3492C42.1429 20.5438 42.0638 20.6623 41.9375 20.7847C41.1385 21.5513 40.5195 22.4416 40.111 23.48C39.0262 26.2372 39.6605 29.3525 41.7371 31.4513C45.0785 34.8269 48.4199 38.2025 51.7613 41.5781C51.8366 41.6554 51.9094 41.7353 52 41.8319C51.9362 41.8667 51.8902 41.8977 51.8405 41.9196C48.2017 43.5004 45.6656 46.1816 44.0957 49.8265C43.3848 51.473 42.9215 53.1905 42.6177 54.9556C42.2668 56.9874 42.1366 59.0359 42.1366 61.0948C42.1378 78.9043 42.1366 96.7138 42.1378 114.522C42.1378 114.682 42.1404 114.842 42.1429 115C32.0983 115 22.0511 115 12 115C12 81.0185 12 47.0371 12 13.0556Z" fill="black"/>
<path fill-rule="evenodd" clip-rule="evenodd" d="M53.2234 26.5676C53.32 26.6411 53.4259 26.7043 53.5095 26.7881C58.2411 31.4541 62.9715 36.1241 67.7031 40.7914C68.6202 41.6965 69.0513 42.7847 68.9951 44.0637C68.905 46.0996 67.1976 47.8324 65.1374 47.9858C63.8063 48.0838 62.6658 47.6738 61.7252 46.7442C55.9262 41.0248 50.1325 35.3028 44.3348 29.5833C43.4112 28.6731 42.9462 27.5849 43.005 26.2943C43.0507 25.3002 43.4204 24.4312 44.0879 23.686C44.1676 23.5957 44.2525 23.5119 44.3388 23.4268C50.1142 17.7267 55.8897 12.0279 61.6625 6.32523C62.2935 5.7012 63.0264 5.27572 63.9042 5.09006C66.2348 4.59754 68.5758 6.17954 68.9403 8.50548C69.1571 9.88763 68.7704 11.0919 67.8063 12.1143C67.7227 12.2033 67.6352 12.2858 67.549 12.3709C62.8683 16.9905 58.1889 21.6089 53.5082 26.2272C53.4232 26.311 53.3187 26.3768 53.2234 26.4503C53.2234 26.489 53.2234 26.5289 53.2234 26.5676Z" fill="black"/>
</svg>
