<svg width="24" height="24" viewBox="0 0 24 24" fill="none" xmlns="http://www.w3.org/2000/svg">
<path fill-rule="evenodd" clip-rule="evenodd" d="M12 20C16.4183 20 20 16.4183 20 12C20 7.58172 16.4183 4 12 4C7.58172 4 4 7.58172 4 12C4 16.4183 7.58172 20 12 20ZM9.29182 9.56915C8.96103 9.3314 8.5 9.5678 8.5 9.97516V14.0249C8.5 14.4322 8.96103 14.6686 9.29182 14.4309L12.109 12.406C12.3866 12.2065 12.3866 11.7935 12.109 11.594L9.29182 9.56915ZM13.4657 9.56915C13.1349 9.3314 12.6739 9.5678 12.6739 9.97516V14.0249C12.6739 14.4322 13.1349 14.6686 13.4657 14.4309L16.2829 12.406C16.5605 12.2065 16.5605 11.7935 16.2829 11.594L13.4657 9.56915Z" fill="#2E1D3A"/>
</svg>
