<svg width="50" height="50" viewBox="0 0 50 50" fill="none" xmlns="http://www.w3.org/2000/svg">
<rect x="1" y="1" width="48" height="48" rx="6" fill="white" stroke="#F0F0F0"/>
<mask id="mask0" mask-type="alpha" maskUnits="userSpaceOnUse" x="0" y="0" width="50" height="50">
<rect x="1" y="1" width="48" height="48" rx="6" fill="white" stroke="white"/>
</mask>
<g mask="url(#mask0)">
<rect x="1" y="1" width="48" height="48" fill="#EEE4F6"/>
</g>
<circle cx="25.0002" cy="15.3996" r="4.8" stroke="#570097" stroke-width="2" stroke-linecap="round" stroke-linejoin="round"/>
<path fill-rule="evenodd" clip-rule="evenodd" d="M20.2002 15.3996C20.2002 12.7486 22.3492 10.5996 25.0002 10.5996V10.5996C27.6512 10.5996 29.8002 12.7486 29.8002 15.3996V15.3996H20.2002V15.3996Z" stroke="#570097" stroke-width="2" stroke-linecap="round" stroke-linejoin="round"/>
<path d="M15.4004 29.8719V25.4004C15.4004 24.2958 16.2958 23.4004 17.4004 23.4004H32.6004C33.705 23.4004 34.6004 24.2958 34.6004 25.4004V29.3715" stroke="#570097" stroke-width="2" stroke-linecap="round" stroke-linejoin="round"/>
<path d="M18.5996 26.5996V37.5996C18.5996 38.1519 19.0473 38.5996 19.5996 38.5996H30.3996C30.9519 38.5996 31.3996 38.1519 31.3996 37.5996V26.5996" stroke="#570097" stroke-width="2" stroke-linecap="round" stroke-linejoin="round"/>
<path d="M29.8 15.4H17" stroke="#570097" stroke-width="2" stroke-linecap="round" stroke-linejoin="round"/>
<path fill-rule="evenodd" clip-rule="evenodd" d="M26.6461 35.4002C26.6464 35.3899 26.6469 35.3796 26.6469 35.3693C26.647 34.1184 26.6471 32.8675 26.6468 31.6167C26.6468 31.4428 26.6241 31.2713 26.5717 31.1034C26.5195 30.9355 26.4384 30.7802 26.3157 30.6435C26.2573 30.5786 26.1915 30.5204 26.1172 30.47C26.1071 30.4631 26.1031 30.456 26.1026 30.4444C26.0968 30.3089 26.0403 30.1926 25.9328 30.0967C25.7256 29.9116 25.518 29.7267 25.3107 29.5419C25.2134 29.455 25.1159 29.3682 25.0186 29.2813C25.0127 29.2761 25.0071 29.2704 25 29.2638C25.0072 29.2572 25.0136 29.2514 25.02 29.2457C25.3177 28.9803 25.6147 28.7144 25.9131 28.4498C25.9917 28.3802 26.0518 28.302 26.0822 28.2066C26.0826 28.2052 26.0837 28.2042 26.0864 28.2002C26.0926 28.2002 26.1008 28.2003 26.109 28.2002C26.2554 28.1995 26.4012 28.2067 26.5468 28.2209C26.7967 28.2454 27.0406 28.2927 27.2768 28.3705C27.6072 28.4795 27.8996 28.6419 28.1479 28.8656C28.333 29.0323 28.4814 29.2223 28.6004 29.4309C28.7311 29.6603 28.8212 29.9024 28.8838 30.1531C28.9193 30.2959 28.9454 30.4401 28.9635 30.5855C28.9836 30.7447 28.9963 30.9042 28.9966 31.0644C28.9966 31.0717 28.9988 31.079 29 31.0864C29 32.5243 29 33.9623 29 35.4002C28.2153 35.4002 27.4308 35.4002 26.6461 35.4002Z" fill="#570097"/>
<path fill-rule="evenodd" clip-rule="evenodd" d="M21.7998 28.2041C21.8106 28.2028 21.8213 28.2004 21.8323 28.2004C22.1344 28.2001 22.4366 28.2002 22.7389 28.2002C23.2183 28.2002 23.6975 28.2002 24.177 28.2002C24.1871 28.2002 24.1973 28.2002 24.2091 28.2002C24.2097 28.2079 24.2107 28.214 24.2107 28.2201C24.2108 28.3864 24.2105 28.5527 24.2111 28.719C24.2112 28.7327 24.2049 28.7411 24.1948 28.7497C24.1309 28.8038 24.0814 28.8667 24.0487 28.94C23.9619 29.1346 24.0126 29.3545 24.1788 29.5026C24.4461 29.7409 24.7134 29.9792 24.9807 30.2175C24.9867 30.2229 24.9926 30.2286 24.9998 30.2354C24.9947 30.2378 24.991 30.24 24.987 30.2416C24.6959 30.3532 24.4931 30.5424 24.3675 30.7997C24.3106 30.9159 24.2735 31.0372 24.2492 31.1618C24.2211 31.3052 24.2107 31.4498 24.2107 31.5951C24.2108 32.8523 24.2107 34.1094 24.2108 35.3665C24.2108 35.3777 24.211 35.389 24.2112 35.4002C23.4077 35.4002 22.6039 35.4002 21.7998 35.4002C21.7998 33.0015 21.7998 30.6028 21.7998 28.2041Z" fill="#570097"/>
<path fill-rule="evenodd" clip-rule="evenodd" d="M24.8293 29.0054C24.8353 29.0109 24.8418 29.0156 24.8469 29.0218C25.1381 29.3691 25.4292 29.7166 25.7204 30.0639C25.7768 30.1313 25.8034 30.2123 25.7999 30.3075C25.7943 30.459 25.6893 30.5879 25.5625 30.5993C25.4806 30.6066 25.4104 30.5761 25.3525 30.5069C24.9957 30.0813 24.6391 29.6555 24.2823 29.2298C24.2255 29.1621 24.1969 29.0811 24.2005 28.9851C24.2033 28.9111 24.2261 28.8464 24.2671 28.791C24.272 28.7843 24.2773 28.778 24.2826 28.7717C24.638 28.3475 24.9934 27.9234 25.3487 27.499C25.3875 27.4526 25.4326 27.4209 25.4866 27.4071C25.63 27.3704 25.7741 27.4882 25.7965 27.6613C25.8099 27.7641 25.7861 27.8537 25.7267 27.9298C25.7216 27.9364 25.7162 27.9426 25.7109 27.9489C25.4229 28.2927 25.1349 28.6364 24.8469 28.9801C24.8416 28.9863 24.8352 28.9912 24.8293 28.9967C24.8293 28.9996 24.8293 29.0025 24.8293 29.0054Z" fill="#570097"/>
</svg>
