<svg width="16" height="16" viewBox="0 0 16 16" fill="none" xmlns="http://www.w3.org/2000/svg">
<path fill-rule="evenodd" clip-rule="evenodd" d="M0 8C0 3.58172 3.58172 0 8 0C12.4183 0 16 3.58172 16 8C16 12.4183 12.4183 16 8 16C3.58172 16 0 12.4183 0 8ZM8.21376 9.79037L8.24029 9.21247C8.24029 8.71388 8.51892 8.49858 9.11597 8.35127C10.2172 8.06799 11 7.26346 11 6.20963C11 5.54108 10.7346 5.0085 10.2039 4.6119C9.67322 4.20397 9.0231 4 8.25356 4C7.4973 4 6.87371 4.2153 6.35627 4.65722C5.85209 5.08782 5.6 5.65439 5.6 6.36827H6.91351C6.91351 5.64306 7.51056 5.15581 8.25356 5.15581C9.00983 5.15581 9.64668 5.5864 9.64668 6.20963C9.64668 6.56091 9.4742 6.84419 9.11597 7.05949C8.85416 7.2137 8.46948 7.38365 8.15422 7.52293L8.15421 7.52293C8.00617 7.58834 7.87343 7.64698 7.77592 7.69405C7.62998 7.77337 7.47076 7.87535 7.31155 8C7.00639 8.23796 6.88698 8.62323 6.88698 9.21247V9.79037H8.21376ZM7.56364 12C8.09435 12 8.50565 11.6827 8.50565 11.2408C8.50565 10.7989 8.09435 10.4703 7.56364 10.4703C7.04619 10.4703 6.62162 10.7989 6.62162 11.2408C6.62162 11.6827 7.04619 12 7.56364 12Z" fill="black"/>
</svg>
