<svg width="82" height="82" viewBox="0 0 82 82" fill="none" xmlns="http://www.w3.org/2000/svg">
<path fill-rule="evenodd" clip-rule="evenodd" d="M53.9751 78.5833C53.9778 78.4814 53.9821 78.3803 53.9821 78.2783C53.983 65.9316 53.9838 53.585 53.9812 41.2391C53.9812 39.5225 53.7837 37.8297 53.3269 36.1728C52.8719 34.5151 52.1653 32.9822 51.096 31.633C50.5879 30.9923 50.0145 30.4183 49.3671 29.9208C49.2792 29.8523 49.2444 29.782 49.2401 29.6677C49.1896 28.3299 48.6971 27.1829 47.76 26.2354C45.9555 24.4089 44.1465 22.5842 42.3402 20.7595C41.4927 19.9025 40.6435 19.0455 39.7952 18.1877C39.7438 18.1358 39.6951 18.0804 39.6333 18.0145C39.696 17.9495 39.7517 17.8923 39.8074 17.8361C42.4011 15.2168 44.9888 12.5922 47.5886 9.97998C48.2734 9.29351 48.7972 8.52179 49.0617 7.57955C49.0652 7.56636 49.0748 7.55582 49.0982 7.51714C49.1522 7.51714 49.2244 7.51802 49.2958 7.51714C50.5713 7.51011 51.8417 7.58043 53.1094 7.72106C55.2873 7.96277 57.412 8.4295 59.4698 9.19771C62.349 10.2735 64.8957 11.8768 67.0597 14.0847C68.672 15.7301 69.9649 17.6049 71.0021 19.6643C72.1402 21.9285 72.9259 24.3184 73.4705 26.7926C73.7803 28.2025 74.0074 29.6255 74.1658 31.0608C74.3406 32.6315 74.4511 34.2057 74.4538 35.787C74.4538 35.8599 74.4729 35.932 74.4833 36.005C74.4833 50.1975 74.4833 64.3908 74.4833 78.5833C67.647 78.5833 60.8115 78.5833 53.9751 78.5833" fill="#570097"/>
<path fill-rule="evenodd" clip-rule="evenodd" d="M8.2 8.92133C8.29245 8.909 8.38403 8.88523 8.47735 8.88523C11.0581 8.88259 13.6396 8.88347 16.2212 8.88347C20.316 8.88347 24.4099 8.88347 28.5055 8.88347C28.5919 8.88347 28.6782 8.88347 28.7794 8.88347C28.7846 8.95831 28.7933 9.01729 28.7933 9.07628C28.7942 10.6857 28.7916 12.2959 28.7968 13.9053C28.7977 14.0382 28.7436 14.1192 28.6573 14.2029C28.1113 14.7267 27.6883 15.3351 27.4092 16.0447C26.6679 17.9287 27.1013 20.0576 28.5203 21.4917C30.8036 23.7984 33.0869 26.1051 35.3702 28.4117C35.4217 28.4645 35.4714 28.5191 35.5333 28.5852C35.4897 28.6089 35.4583 28.6301 35.4243 28.645C32.9378 29.7253 31.2048 31.5574 30.1321 34.0481C29.6463 35.1732 29.3297 36.3468 29.1221 37.553C28.8823 38.9414 28.7933 40.3412 28.7933 41.7481C28.7942 53.9179 28.7933 66.0877 28.7942 78.2567C28.7942 78.3659 28.7959 78.475 28.7977 78.5833C21.9338 78.5833 15.0682 78.5833 8.2 78.5833C8.2 55.3627 8.2 32.142 8.2 8.92133" fill="#570097"/>
<path fill-rule="evenodd" clip-rule="evenodd" d="M36.3693 18.1545C36.4354 18.2047 36.5077 18.2479 36.5648 18.3052C39.7981 21.4936 43.0305 24.6848 46.2638 27.8741C46.8905 28.4926 47.1851 29.2362 47.1467 30.1102C47.0851 31.5014 45.9183 32.6855 44.5106 32.7903C43.6009 32.8573 42.8216 32.5771 42.1789 31.9419C38.2163 28.0336 34.2572 24.1235 30.2955 20.2153C29.6643 19.5933 29.3465 18.8497 29.3867 17.9677C29.418 17.2885 29.6706 16.6946 30.1268 16.1854C30.1812 16.1237 30.2392 16.0665 30.2982 16.0083C34.2447 12.1132 38.1913 8.21906 42.136 4.32223C42.5672 3.89581 43.068 3.60507 43.6679 3.4782C45.2604 3.14164 46.8601 4.22268 47.1092 5.81207C47.2574 6.75654 46.9931 7.57943 46.3343 8.27809C46.2772 8.33888 46.2174 8.39527 46.1585 8.45342C42.96 11.6102 39.7624 14.766 36.5639 17.9219C36.5059 17.9792 36.4345 18.0241 36.3693 18.0743C36.3693 18.1008 36.3693 18.1281 36.3693 18.1545" fill="#570097"/>
</svg>
