<svg width="24" height="25" viewBox="0 0 24 25" fill="none" xmlns="http://www.w3.org/2000/svg">
<path fill-rule="evenodd" clip-rule="evenodd" d="M12.2486 1.12496C11.7686 0.636733 10.9816 0.636734 10.5017 1.12496L5.02457 6.69646C4.25956 7.47465 4.25956 8.72243 5.02457 9.50062L10.5017 15.0721C10.9816 15.5603 11.7686 15.5603 12.2486 15.0721C12.7171 14.5956 12.7171 13.8314 12.2486 13.3548L8.30167 9.33994H12.2273L12.3297 9.34077C15.7023 9.39558 18.4194 12.1531 18.4194 15.5468C18.4194 18.9748 15.6471 21.7537 12.2273 21.7537C10.7438 21.7537 9.38209 21.2308 8.31572 20.3587C7.76791 19.9107 7.29803 19.3706 6.92962 18.7619C6.74068 18.4497 6.5394 17.9269 6.38997 17.4978C6.24439 17.0797 5.85553 16.7884 5.41283 16.7884L4.27967 16.7883C3.95657 16.7883 3.71978 17.0894 3.80439 17.4012C3.98734 18.0755 4.30434 19.1403 4.62235 19.7212C5.12175 20.6334 5.77975 21.4461 6.55913 22.1218C8.07891 23.4394 10.0603 24.2365 12.2273 24.2365C17.015 24.2365 20.8962 20.346 20.8962 15.5468C20.8962 10.7477 17.015 6.85718 12.2273 6.85718H8.30163L12.2486 2.84224C12.7171 2.36567 12.7171 1.60152 12.2486 1.12496ZM7.14983 8.02883L7.0813 8.09854L7.14983 8.16825V8.02883Z" fill="#2E1D3A"/>
</svg>
