<svg width="40" height="32" viewBox="0 0 40 32" fill="none" xmlns="http://www.w3.org/2000/svg">
<rect width="40" height="32" rx="4" fill="#F6E4E4"/>
<path d="M20 5L27.7782 8.22183L31 16L27.7782 23.7782L20 27L12.2218 23.7782L9 16L12.2218 8.22183L20 5Z" fill="white"/>
<path fill-rule="evenodd" clip-rule="evenodd" d="M20 6.64225L13.3831 9.38307L10.6423 16L13.3831 22.6169L20 25.3577L26.6169 22.6169L29.3577 16L26.6169 9.38307L20 6.64225ZM27.7782 8.22183L20 5L12.2218 8.22183L9 16L12.2218 23.7782L20 27L27.7782 23.7782L31 16L27.7782 8.22183Z" fill="#99008A"/>
<path fill-rule="evenodd" clip-rule="evenodd" d="M20 11.7318L16.9819 12.9819L15.7318 16L16.9819 19.0181L20 20.2682L23.0181 19.0181L24.2682 16L23.0181 12.9819L20 11.7318ZM24.2426 11.7574L20 10L15.7574 11.7574L14 16L15.7574 20.2426L20 22L24.2426 20.2426L26 16L24.2426 11.7574Z" fill="#99008A"/>
<path fill-rule="evenodd" clip-rule="evenodd" d="M19.2308 10.9057V6H20.7692V10.9057H19.2308ZM13.6487 8.13663L17.1102 11.9102L15.9667 12.92L12.5052 9.14639L13.6487 8.13663ZM27.903 9.11942L24.4415 13.2704L23.2508 12.3145L26.7123 8.16359L27.903 9.11942ZM10 15.0566H15V16.566H10V15.0566ZM30 16.566H25V15.0566H30V16.566ZM12.1777 22.0428L16.0239 18.6466L17.053 19.7685L13.2069 23.1648L12.1777 22.0428ZM26.7638 23.5148L22.9176 19.7412L24.0055 18.6739L27.8516 22.4475L26.7638 23.5148ZM19.2308 26V20.717H20.7692V26H19.2308Z" fill="#99008A"/>
</svg>
