<svg width="33" height="32" viewBox="0 0 33 32" fill="none" xmlns="http://www.w3.org/2000/svg">
<path fill-rule="evenodd" clip-rule="evenodd" d="M24.5 3C27.1888 3 29.3818 5.12231 29.4954 7.78311L29.5 8V11L29.4933 11.1166C29.44 11.5757 29.0757 11.9399 28.6166 11.9933L28.5 12L28.3834 11.9933C27.9243 11.9399 27.56 11.5757 27.5067 11.1166L27.5 11V8C27.5 6.40232 26.2511 5.09634 24.6763 5.00509L24.5 5H21.5L21.3834 4.99327C20.886 4.93551 20.5 4.51284 20.5 4C20.5 3.48716 20.886 3.06449 21.3834 3.00673L21.5 3H24.5ZM4.61662 20.0067L4.5 20L4.38338 20.0067C3.9243 20.06 3.56005 20.4243 3.50673 20.8834L3.5 21V24L3.50462 24.2169C3.61818 26.8777 5.81125 29 8.5 29H11.5L11.6166 28.9933C12.0757 28.94 12.4399 28.5757 12.4933 28.1166L12.5 28L12.4933 27.8834C12.4399 27.4243 12.0757 27.06 11.6166 27.0067L11.517 27H8.5L8.32373 26.9949C6.74892 26.9037 5.5 25.5977 5.5 24V21L5.49327 20.8834C5.43995 20.4243 5.0757 20.06 4.61662 20.0067ZM27.4949 24.1763C27.4037 25.7511 26.0977 27 24.5 27H21.5L21.3834 27.0067C20.9243 27.06 20.56 27.4243 20.5067 27.8834L20.5 28L20.5067 28.1166C20.56 28.5757 20.9243 28.94 21.3834 28.9933L21.5 29H24.5L24.7169 28.9954C27.3777 28.8818 29.5 26.6888 29.5 24V21L29.4933 20.8834C29.44 20.4243 29.0757 20.06 28.6166 20.0067L28.5 20L28.3834 20.0067C27.9243 20.06 27.56 20.4243 27.5067 20.8834L27.5 21V24L27.4949 24.1763ZM11.6166 3.00673L11.5 3H8.5L8.28311 3.00462C5.62231 3.11818 3.5 5.31125 3.5 8V11L3.50673 11.1166C3.56449 11.614 3.98716 12 4.5 12C5.01284 12 5.43551 11.614 5.49327 11.1166L5.5 11V8L5.50509 7.82373C5.59634 6.24892 6.90232 5 8.5 5H11.5L11.6166 4.99327C12.0757 4.93995 12.4399 4.5757 12.4933 4.11662L12.5 4L12.4933 3.88338C12.4399 3.4243 12.0757 3.06005 11.6166 3.00673Z" fill="#570097"/>
<rect x="2.5" y="15" width="28" height="2" rx="1" fill="#6AAF6A"/>
</svg>
