<?xml version="1.0" encoding="UTF-8"?>
<svg xmlns="http://www.w3.org/2000/svg" xmlns:xlink="http://www.w3.org/1999/xlink" viewBox="0 0 48 48" width="48px" height="48px">
<g id="surface68968359">
<path style=" stroke:none;fill-rule:nonzero;fill:rgb(100%,100%,100%);fill-opacity:1;" d="M 45 35 C 45 37.199219 43.199219 39 41 39 L 7 39 C 4.800781 39 3 37.199219 3 35 L 3 13 C 3 10.800781 4.800781 9 7 9 L 41 9 C 43.199219 9 45 10.800781 45 13 Z M 45 35 "/>
<path style=" stroke:none;fill-rule:nonzero;fill:rgb(100%,42.745098%,0%);fill-opacity:1;" d="M 45 35 C 45 37.199219 43.199219 39 41 39 L 16 39 C 16 39 39.601562 35.199219 45 24 Z M 22 24 C 22 25.699219 23.300781 27 25 27 C 26.699219 27 28 25.699219 28 24 C 28 22.300781 26.699219 21 25 21 C 23.300781 21 22 22.300781 22 24 Z M 22 24 "/>
<path style=" stroke:none;fill-rule:nonzero;fill:rgb(0%,0%,0%);fill-opacity:1;" d="M 11.199219 21 L 12.300781 21 L 12.300781 27 L 11.199219 27 Z M 17.199219 24 C 17.199219 25.699219 18.5 27 20.199219 27 C 20.699219 27 21.101562 26.898438 21.601562 26.699219 L 21.601562 25.398438 C 21.199219 25.800781 20.800781 26 20.199219 26 C 19.101562 26 18.300781 25.199219 18.300781 24 C 18.300781 22.898438 19.101562 22 20.199219 22 C 20.699219 22 21.101562 22.199219 21.601562 22.601562 L 21.601562 21.300781 C 21.101562 21.101562 20.699219 20.898438 20.199219 20.898438 C 18.5 21 17.199219 22.398438 17.199219 24 Z M 30.601562 24.898438 L 29 21 L 27.800781 21 L 30.300781 27 L 30.898438 27 L 33.398438 21 L 32.199219 21 Z M 33.898438 27 L 37.101562 27 L 37.101562 26 L 35 26 L 35 24.398438 L 37 24.398438 L 37 23.398438 L 35 23.398438 L 35 22 L 37.101562 22 L 37.101562 21 L 33.898438 21 Z M 41.5 22.800781 C 41.5 21.699219 40.800781 21 39.5 21 L 37.800781 21 L 37.800781 27 L 38.898438 27 L 38.898438 24.601562 L 39 24.601562 L 40.601562 27 L 42 27 L 40.199219 24.5 C 41 24.300781 41.5 23.699219 41.5 22.800781 Z M 39.199219 23.800781 L 38.898438 23.800781 L 38.898438 22 L 39.199219 22 C 39.898438 22 40.300781 22.300781 40.300781 22.898438 C 40.300781 23.398438 40 23.800781 39.199219 23.800781 Z M 7.699219 21 L 6 21 L 6 27 L 7.601562 27 C 10.101562 27 10.699219 24.898438 10.699219 24 C 10.800781 22.199219 9.5 21 7.699219 21 Z M 7.398438 26 L 7.101562 26 L 7.101562 22 L 7.5 22 C 9 22 9.601562 23 9.601562 24 C 9.601562 24.398438 9.5 26 7.398438 26 Z M 15.300781 23.300781 C 14.601562 23 14.398438 22.898438 14.398438 22.601562 C 14.398438 22.199219 14.800781 22 15.199219 22 C 15.5 22 15.800781 22.101562 16.101562 22.5 L 16.699219 21.699219 C 16.199219 21.199219 15.699219 21 15 21 C 14 21 13.199219 21.699219 13.199219 22.699219 C 13.199219 23.5 13.601562 23.898438 14.601562 24.300781 C 15.199219 24.5 15.699219 24.699219 15.699219 25.199219 C 15.699219 25.699219 15.300781 26 14.800781 26 C 14.300781 26 13.800781 25.699219 13.601562 25.199219 L 12.898438 25.898438 C 13.398438 26.699219 14 27 14.898438 27 C 16.101562 27 16.898438 26.199219 16.898438 25.101562 C 16.898438 24.199219 16.5 23.800781 15.300781 23.300781 Z M 15.300781 23.300781 "/>
</g>
</svg>
